<?xml version="1.0" encoding="UTF-8"?>
<svg xmlns:rdf="http://www.w3.org/1999/02/22-rdf-syntax-ns#" xmlns="http://www.w3.org/2000/svg" xmlns:cc="http://creativecommons.org/ns#" xmlns:dc="http://purl.org/dc/elements/1.1/" xmlns:svg="http://www.w3.org/2000/svg" id="svg3418" viewBox="0 0 587.11 517.39" version="1.1">
  <title id="title3640">Caution_banana_skin</title>
  <g id="layer1" transform="translate(356.84 -691.7)">
    <g id="g3388" transform="matrix(.82302 0 0 .82302 -366.24 638.13)">
      <g id="g3390" stroke="#000" stroke-linecap="round">
        <path id="path3392" d="m291.34-65.688c-10.868 0.53434-20.712 6.5473-26.156 15.969l-405.62 702.62c-5.7255 9.9109-5.7205 22.117 0 32.031 5.7205 9.9143 16.273 16.028 27.719 16.031l807.88 0.15625c11.419-0.006 21.96-6.09 27.688-15.969 5.7273-9.8788 5.7621-22.056 0.0937-31.969l-402.25-702.77c-5.98-10.462-17.31-16.681-29.35-16.098z" stroke-width="12.5" fill="none" transform="matrix(.80662 0 0 .80662 133.19 123.15)"/>
        <path id="path3394" stroke-linejoin="round" d="m292.91-32.375-404.5 700.66 805.62 0.15625c-133.71-233.61-267.41-467.2-401.12-700.82z" fill-rule="evenodd" transform="matrix(.80662 0 0 .80662 133.19 123.15)" stroke-width="29.444" fill="#fc0"/>
      </g>
    </g>
  </g>
  <g id="layer2">
    <g id="g2840" transform="matrix(-.48902 -.87227 .87227 -.48902 154.53 726.02)">
      <path id="path3400" d="m372.26 294.21c13.01 0 23.555-10.547 23.555-23.556 0-13.01-10.546-23.556-23.555-23.556-13.01 0-23.556 10.547-23.556 23.556 0 13.01 10.547 23.556 23.556 23.556z"/>
      <path id="path3404" d="m251.97 266.95-6.1692-16.04 54.288-19.741 38.248 27.144s2.4677 30.845 12.338 37.015l-16.04 41.95 24.676 23.443-6.1688 12.338-46.885-29.611 22.209-28.378-2.4677-4.9354-49.353 16.04 8.6369 43.184-32.079 51.82h-19.741l32.079-54.288-8.6369-35.781-7.4026-9.8704-24.676 33.313-59.223-33.313 14.806-12.338 35.781 19.741 22.208-34.547 78.965-20.975 3.7011-8.6369-19.741-13.572-49.353 16.04z"/>
    </g>
  </g>
  <g id="layer3">
    <path id="path2845" stroke-linejoin="round" d="m374.4 425.64c0.30177-3.6753-1.6466-4.8191-3.0148-6.6157l1.1724-0.33497c1.691 1.8989 3.9337 4.4694 3.1822 7.0344 0 0 5.1668 1.3894 5.3232 3.5088 0.56394 7.6429-29.106 12.067-29.106 12.067s17.599-5.5667 26.259-10.472c1.7499-3.0012-1.0678-1.9768-2.1412-2.7596-10.19 6.1999-22.939 3.9583-35.507 4.1034-29.195-2.71 24.134-1.2334 33.832-6.532z" stroke="#000" stroke-linecap="round" stroke-width="1px"/>
  </g>
  <metadata>
    <rdf:RDF>
      <cc:Work>
        <dc:format>image/svg+xml</dc:format>
        <dc:type rdf:resource="http://purl.org/dc/dcmitype/StillImage"/>
        <cc:license rdf:resource="http://creativecommons.org/licenses/publicdomain/"/>
        <dc:publisher>
          <cc:Agent rdf:about="http://openclipart.org/">
            <dc:title>Openclipart</dc:title>
          </cc:Agent>
        </dc:publisher>
        <dc:title>Warning banana skin</dc:title>
        <dc:date>2010-10-24T12:53:41</dc:date>
        <dc:description>banana skin, caution, clip art, clipart, humor, road sign, roadsign, sign, warning, </dc:description>
        <dc:source>http://openclipart.org/detail/92407/warning-banana-skin-by-cybergedeon</dc:source>
        <dc:creator>
          <cc:Agent>
            <dc:title>dominiquechappard</dc:title>
          </cc:Agent>
        </dc:creator>
        <dc:subject>
          <rdf:Bag>
            <rdf:li>banana skin</rdf:li>
            <rdf:li>caution</rdf:li>
            <rdf:li>clip art</rdf:li>
            <rdf:li>clipart</rdf:li>
            <rdf:li>humor</rdf:li>
            <rdf:li>road sign</rdf:li>
            <rdf:li>roadsign</rdf:li>
            <rdf:li>sign</rdf:li>
            <rdf:li>warning</rdf:li>
          </rdf:Bag>
        </dc:subject>
      </cc:Work>
      <cc:License rdf:about="http://creativecommons.org/licenses/publicdomain/">
        <cc:permits rdf:resource="http://creativecommons.org/ns#Reproduction"/>
        <cc:permits rdf:resource="http://creativecommons.org/ns#Distribution"/>
        <cc:permits rdf:resource="http://creativecommons.org/ns#DerivativeWorks"/>
      </cc:License>
    </rdf:RDF>
  </metadata>
</svg>