<?xml version="1.0" encoding="UTF-8"?>
<svg xmlns:rdf="http://www.w3.org/1999/02/22-rdf-syntax-ns#" xmlns="http://www.w3.org/2000/svg" xmlns:cc="http://creativecommons.org/ns#" xmlns:dc="http://purl.org/dc/elements/1.1/" xmlns:svg="http://www.w3.org/2000/svg" id="svg4587" viewBox="0 0 447.59 413.67" version="1.1">
  <title id="title5819">centaur</title>
  <g id="layer2" transform="translate(-127.24 -325.16)">
    <path id="path5777" style="color:#000000" d="m183.81 325.16c-2.1927 0-3.7317 0.7312-5.4062 1.3438-1.3005 0.47572-1.9621 0.74999-2.4062 0.9375-0.76359-0.008-7.1964-0.0547-9-0.3125-1.586-0.22657-2.7747 0.31617-3.7188 0.875-0.94401 0.55883-1.7452 1.231-2.4688 1.9375-1.3422 1.3105-2.3593 2.6903-3.0938 3.6875-1.1092 0.83393-2.2244 1.6942-3.1562 2.7812-0.74309 0.86694-4.7551 3.3025-8.3125 5.3125-1.7787 1.005-3.4726 1.9854-4.875 3.0625-0.7012 0.53854-1.327 1.1001-1.9062 1.9062-0.57929 0.80616-1.1869 2.1896-0.75 3.7188a3.0703 3.0703 0 0 0 0.75 1.3125s1.094 1.1226 2 2.375c0.45302 0.62621 0.82123 1.2851 0.96875 1.6562-1.4693 2.9702-7.9062 16.344-7.9062 16.344a3.0703 3.0703 0 0 0 3.09 4.4l1.4688-0.15625-0.46875 3.125a3.0703 3.0703 0 0 0 -0.0312 0.75l0.4375 5.0938-0.4375 0.90625c-0.43182 0.2751-1.1749 0.72315-2.5312 1.75-1.6926 1.2814-3.6504 2.7396-4.9375 4.9375-1.7743 3.0298-2.6851 6.75-3.25 10.156-0.56493 3.4063-0.76246 6.2816-0.5625 8.2812 0.15359 1.5358 1.2596 3.0676 2.4375 3.7188 1.178 0.6511 2.2472 0.72122 3.125 0.71875 1.7555-0.005 3.1562-0.46875 3.1562-0.46875a3.0703 3.0703 0 0 0 2.0312 -2.0312s1.1653-3.7257 1.8125-5.3438c0.55173-1.3793 3.3503-5.8936 5.2812-7.375 0.1635-0.12543 1.5746-0.78539 2.75-1.1562 1.1437-0.36087 2.043-0.58215 2.0938-0.59375 0.001-0.00032 0.0625 0 0.0625 0v-0.0312c0.82764-0.17487 1.5765-0.37907 2.3438-0.875 0.1404-0.0908 0.2644-0.2833 0.40625-0.40625l21-4.7812 2.875-0.65625c0.1066 0.15321 0.13758 0.20723 0.40625 0.59375 0.52364 0.75384 1.1013 1.5601 1.75 2.5312 0.02 0.03 0.011 0.0634 0.0312 0.0937a3.0703 3.0703 0 0 0 0.125 0.15625 3.0703 3.0703 0 0 0 0 0.0312c1.4608 2.1996 3.1053 4.8282 4.3438 7.125 1.2384 2.2968 1.9062 4.6534 1.9062 4.5 0 2.44-0.60193 6.033-1.0625 8.5625-0.47541-0.0237-0.81437-0.12872-1.3438-0.0937-2.6829 0.17721-6.3467 1.4841-8.5312 5.125-2.2398 3.7329-2.6145 8.556-2.4688 13.219 0.14572 4.6628 0.82361 8.9597 2.3438 12 2.0524 4.1049 4.6473 8.8888 5.0625 9.6562l-0.96875 28.844-4.8125 1.125c0.0694-1.1542 0.10678-2.3381-0.125-3.5938-0.11891-0.6442-0.30089-1.343-0.75-2.0938s-1.3436-1.6093-2.5312-1.9062c-2.2388-0.55969-4.9146-0.93341-5.5938-1.0312-0.43005-0.27145-2.3767-1.5071-5.0938-3.0312-1.4998-0.8413-3.1151-1.7023-4.5938-2.375-1.4787-0.67268-2.5276-1.2812-4.4375-1.2812-0.95174 0-3.503-0.26365-5.9375-0.46875s-4.4712-0.54626-6.7812 0.0312c-1.797 0.44925-2.7178 1.7075-3.2812 2.7188-0.56347 1.0113-0.8545 2.0074-1.0938 2.9375-0.37384 1.4534-0.44567 2.2616-0.5 2.7812-0.17836 0.32156-0.5356 0.9539-1.125 2.1875-0.71668 1.5-1.5236 3.2356-1.8438 5.1562-0.36186 2.1713-0.0951 4.1619-0.40625 6.1562-0.2436 1.5616-0.62803 3.2375-0.96875 4.7188-0.34072 1.4812-0.6875 2.4863-0.6875 4 0 1.5775 0.69505 2.7273 1.4062 3.5938 0.7112 0.86648 1.5268 1.5459 2.375 2.1562 1.6965 1.2207 3.5733 2.173 5 2.8125 0.52286 0.23436 0.97123 0.37537 1.3438 0.5 0.008 0.003 0.0237-0.003 0.0312 0 0.27488 0.0944 0.53668 0.17689 0.78125 0.25a3.0703 3.0703 0 0 0 0.0625 0.0312c0.006 0.002 0.0954 0.006 0.1875 0.0312 0.0332 0.009 0.0181 0.0196 0.0625 0.0312v-0.0312c2.938 0.83035 6.151 1.1427 9.0312 1.0625 1.4497-0.0404 2.8049-0.17805 4.0312-0.4375 1.2264-0.25945 2.3451-0.49176 3.5312-1.5a3.0703 3.0703 0 0 0 0.5625 -0.65625l1.2188-1.875 3.75-0.53125c0.50328 0.63589 0.64525 0.8898 1.6875 1.9062-0.00002-0.00002 0.0283 0.029 0.0312 0.0312 0.00002 0.00002 0.0294 0.0302 0.0312 0.0312 0.001 0.00066 0.0294-0.001 0.0312 0 0.11297 0.0629 1.4052 0.81225 1.4062 0.8125 0.00055 0.00013-0.71921-0.28149-0.71875-0.28125 0.0004 0.00021-0.53004-0.38044-0.6875-0.5 0.96172 0.9233 2.1604 1.9211 3.5625 2.9062v0.0312c0.007 0.005 0.0239-0.005 0.0312 0 0.69948 0.49157 1.4658 1.0243 2.3125 1.5 0.83009 0.46587 1.6995 0.89563 2.625 1.2812 1.6685 0.69519 3.5423 1.4159 5.5 2.0625 0.0222 0.007 0.01-0.007 0.0312 0 0.0216 0.007 0.0103-0.006 0.0312 0 3.398 1.1191 6.8502 2.086 10.156 1.6875 0.46187-0.0566 0.93898-0.17793 1.4062-0.3125 0.0129-0.004 0.0184-0.0274 0.0312-0.0312 1.912-0.57016 3.8824-2.3144 4.375-4.5312 0.5351-2.4079 1.5787-6.8752 2.5312-11.094 0.95462-4.207 1.7976-8.082 2.0938-9.5625 0.30469-1.5235 1.3108-7.0448 2.25-12.344-0.0572 0.26883-0.28824 0.76387-0.28125 0.75 0.006-0.0125 0.19826-0.4649 0.28125-0.78125 0.003-0.0113-0.003-0.0203 0-0.0312 0.009-0.0366 0.0256-0.0617 0.0312-0.0937 0.34112-1.9249 0.37344-2.0986 0.65625-3.7188 1.1214 1.3802 1.2836 1.5484 2.625 3.25 1.748 2.2174 3.528 4.55 4.9062 6.4688 1.3782 1.9187 2.4367 3.8726 2.3438 3.5938 0.65469 1.9641 1.8055 2.9872 3.125 4.25s2.8823 2.5216 4.375 3.6562c0.54967 0.41781 0.91001 0.65737 1.25 0.90625 0.31643 0.23195 0.68138 0.54635 1.1875 0.90625 0.54103 0.38341 0.95602 0.68372 1.375 0.96875 0.006 0.004 0.0248-0.004 0.0312 0 0.78978 0.54371 1.0666 0.72744 1.3438 0.90625l8.375 12.312 0.125 2.5625-5.75 5.5625a3.0703 3.0703 0 0 0 0.84375 5l-0.78125 0.71875a3.0703 3.0703 0 0 0 1.5312 5.3125c-0.84154 5.0242-3.5307 20.998-4.7188 25.75-0.40123 1.6049-0.35796 3.1664-0.21875 5.1875s0.43408 4.3937 0.84375 7c0.7034 4.475 1.868 9.6356 3.0625 14.594-8.7934 4.7442-20.763 10.57-23.688 12-2.3283 1.1386-4.8088 2.4433-6.9062 3.9688-2.0975 1.5254-4.2169 3.143-4.5625 6.2188-0.39764 3.5392-0.24745 11.137 4.4062 16.969 0.36876 0.46211 1.5165 2.3814 2.75 4.8125 1.0089 1.9884 2.1947 4.5597 3.375 7.1562-1.314 1.7722-2.6816 3.6017-3.1562 4.3125-1.8847 2.8223-2.9507 6.1573-3.25 9.2812-0.14964 1.562-0.10246 3.0975 0.28125 4.5625s1.1752 3.0315 2.8125 3.9688c-0.11766-0.0674 1.0399 0.7597 2.3125 1.8438 1.2726 1.084 2.9112 2.546 4.7188 4.1875 3.5 3.1786 7.6477 7.0898 11.281 10.594 1.2821 2.5268 2.5771 4.9545 2.9375 5.7812 0.64705 1.4845 1.2668 1.9255 2.25 2.9688 0.98321 1.0433 2.2578 2.2921 3.75 3.6875 2.9159 2.7267 6.6882 6.0459 10.625 9.3125 4.0266 5.0456 7.9855 10.232 10.188 13.625 1.6434 2.5326 3.9923 5.3233 6.5312 8.125 0.59914 0.66107 1.1836 1.2704 1.75 1.875 0.55312 0.59034 1.1174 1.218 1.75 1.875 0.2413 0.25079 0.40901 0.40607 0.5 0.5 0.65393 0.67458 1.3172 1.3752 2 2.0625 0.864 0.87052 1.7013 1.7161 2.5 2.5 0.97871 0.9596 1.8649 1.8034 2.5938 2.5 1.3614 1.3005 2.4062 2.2812 2.4062 2.2812a3.0703 3.0703 0 0 0 3.625 0.40625c0.83086-0.47508 1.5958-0.94637 2.3125-1.4062 11.223-7.1977 16.818-16.949 21.562-26.344a3.0703 3.0703 0 0 0 -0.59375 -3.5312l-0.0312-0.0312a3.0703 3.0703 0 0 0 -0.75 -0.5625l-14.938-7.6562a3.0703 3.0703 0 0 0 -3.2188 0.25s-0.28358 0.19053-0.6875 0.46875c0.24848-0.13354 0.79377-0.35624 0.75-0.34375-0.0431 0.0123-0.53203 0.25185-0.8125 0.40625-0.0432 0.0237-0.0954 0.0424-0.125 0.0625-0.53889 0.36635-1.1442 0.77156-1.875 1.2188-0.0582 0.0357-0.12657 0.0887-0.34375 0.21875a3.0703 3.0703 0 0 0 -0.0312 0c-0.35224 0.21123-0.63244 0.37717-0.90625 0.53125-0.0653 0.0368-0.24072 0.14075-0.5 0.28125-0.20347 0.11024-0.33715 0.19406-0.5 0.28125 0.18565-0.3749 0.38172-0.7476 0.5625-1.125a3.0703 3.0703 0 0 0 0 -0.0312c0.006-0.0123 0.0254-0.0189 0.0312-0.0312 0.0249-0.0561 0.01-0.0716 0.0312-0.125 1.6391-3.4382 3.0834-6.9175 4.1875-10.5 0.007-0.0209-0.006-0.0109 0-0.0312 0.22204-0.72177 0.42843-1.4473 0.625-2.1875 0.38717-1.4545 0.73575-2.922 1-4.4375 0.13332-0.7657 0.21988-1.5397 0.3125-2.2812a3.0703 3.0703 0 0 0 -2.75 -3.4375l-16.062-1.4062a3.0703 3.0703 0 0 0 -2.7812 1.2812s-0.0623 0.0994-0.21875 0.3125a3.0703 3.0703 0 0 0 -0.0312 0.0312c-0.20468 0.28472-0.0696 0.15263-0.21875 0.34375a3.0703 3.0703 0 0 0 -0.0312 0c-0.0702 0.0914-0.15158 0.20212-0.34375 0.4375-0.12864 0.15676-0.18775 0.20818-0.25 0.28125a3.0703 3.0703 0 0 0 0 0.0312c0.0375-0.0445-0.0764 0.0467-0.28125 0.28125-0.0877 0.0995-0.24957 0.26518-0.53125 0.5625a3.0703 3.0703 0 0 0 -0.0312 0.0312c-0.0597 0.0634-0.12602 0.12347-0.1875 0.1875-1.8129-0.0182-3.6797 0.0104-5.4062 0.0937-2.0994 0.10129-3.9422 0.10276-4.9375-0.0312-0.0847-0.0416-0.24003-0.0917-0.4375-0.25-0.19156-0.15355-0.52568-0.51057-0.78125-0.75 0.16282-0.92108 0.33585-1.8036 0.53125-3.0938 0.27823-1.8371 0.39627-4.169-0.78125-6.4375a3.0703 3.0703 0 0 0 0 -0.0312c-3.919-7.4049-7.3067-10.211-9.4688-11.719-2.1519-1.5006-2.2329-0.83022-3.0312-4.375v-0.0312l-1.0625-4.7188c3.258-4.0954 7.3388-9.1271 11.25-13.656 4.2305-4.899 8.5694-9.2399 9.6875-9.9375 2.1049-1.3133 5.2419-3.5636 8.375-5.875 0.26979 0.0634 0.52445 0.12306 0.8125 0.1875 1.5832 0.35464 3.176 0.67397 4.875 1a3.0703 3.0703 0 0 0 0.0312 0c-0.0768-0.0147 0.007 0.0416 0.28125 0.0937 1.5478 0.29421 3.0858 0.52998 4.6562 0.78125 1.4322 0.22925 2.8846 0.42873 4.375 0.625 0.13538 0.0178 0.41485 0.0709 0.84375 0.125 2.6865 0.33931 5.409 0.61383 8.2188 0.8125 1.876 0.13248 3.7944 0.22395 5.7188 0.28125 0.25966 0.008 0.3222 0.004 0.1875 0 0.86688 0.0245 1.7777 0.055 2.7188 0.0625 0.20035 0.001 0.39145-0.00056 0.53125 0 1.1021 0.004 2.1746-0.007 3.2812-0.0312 0.35405-0.008 0.63545-0.0263 0.8125-0.0312 0.369-0.0105 0.78293-0.0132 1.25-0.0312 1.9831-0.0761 3.9761-0.19592 5.9688-0.375 1.7651-0.15912 3.5452-0.37712 5.3125-0.625 0.19236-0.027 0.40804-0.0526 0.6875-0.0937 0.86964-0.12807 1.7607-0.24998 2.6562-0.40625 0.14829-0.0259 0.25631-0.0469 0.34375-0.0625 0.99576-0.17751 1.995-0.38157 3-0.59375 15.57-3.2871 30.74-8.1591 43.062-12.562 4.7002 5.2612 10.068 10.452 15.656 14.562 6.1296 4.5083 12.338 7.8624 18.281 8.4375 0.83316 0.0806 1.712 0.11811 2.5938 0.15625 4.2943 2.312 8.3905 4.2917 11.688 5.6875 1.5989 0.67691 2.8927 1.2274 4.0938 1.6562-4.9378 5.2126-10.389 10.932-11.625 12.375-0.20716 0.24169-1.4743 1.4201-3.0312 2.75-1.557 1.3299-3.4662 2.9592-5.375 4.7188-3.8176 3.5191-7.8697 7.1386-8.7812 12-0.83648 4.4612 1.2001 8.4895 3.125 11.938 1.9249 3.448 4.0164 6.7526 4.25 7.5312 0.35283 1.1761 1.3879 3.8761 2.5625 6.8438-0.0158 0.0299-0.0157 0.064-0.0312 0.0937-3.7708 7.2165-9.1102 15.183-13.562 23.031-0.2006 0.35359-0.38454 0.64347-0.53125 0.90625-0.057 0.10211-0.10645 0.1916-0.15625 0.28125-0.2136 0.38468-0.45339 0.82157-0.71875 1.3125-0.24761 0.45798-0.48249 0.89047-0.6875 1.2812-0.48666 0.92837-0.91695 1.8362-1.3438 2.7188-0.2415 0.49939-0.51168 1.0322-0.78125 1.625-0.22077 0.48463-0.45777 1.0224-0.6875 1.5625-0.0892 0.21021-0.15478 0.30898-0.15625 0.3125-0.28605 0.68375-0.50605 1.3089-0.71875 1.875a3.0703 3.0703 0 0 0 0 0.0312c-0.17601 0.46955-0.34211 0.90969-0.5 1.375-0.17089 0.50292-0.35488 1.0555-0.53125 1.6562-0.2224 0.75756-0.42961 1.5436-0.59375 2.2812-0.0367 0.16522-0.0417 0.20503-0.0312 0.15625-0.17444 0.80598-0.30351 1.6156-0.40625 2.4375a3.0703 3.0703 0 0 0 2.4375 3.375c0.68145 0.13677 1.356 0.28497 2.0625 0.40625 1.3815 0.23715 2.8089 0.45656 4.25 0.625 0.69975 0.0818 1.3906 0.1519 2.125 0.21875 0.57178 0.0522 0.5898 0.0515 0.0312 0 0.7347 0.0666 1.4907 0.11018 2.1875 0.15625 3.641 0.24073 7.3271 0.26829 11.156 0.0937 3.0668-0.13976 6.2102-0.39619 9.375-0.78125 1.5904-0.19351 3.176-0.43715 4.7812-0.6875a3.0703 3.0703 0 0 0 2.5938 -2.6562l0.7-5.71a3.0703 3.0703 0 0 0 2.9062 0.625c0.88014-0.27054 1.7137-0.59376 2.5-0.90625 1.6225-0.64659 3.1924-1.3864 4.6562-2.25 0.72045-0.42515 1.4222-0.8821 2.0938-1.3438 0.71317-0.4909 1.3813-1.0133 2-1.5 3.2025-2.5202 5.9872-5.4344 8.5312-8.5h-0.0312c0.00001-0.00001-0.00045-0.0303 0-0.0312h0.0312c0.00066-0.001-0.001-0.029 0-0.0312 3.0381-3.6646 5.7763-7.4784 8.5938-11.031a3.0703 3.0703 0 0 0 -0.78125 -4.5l-14.594-9.2188a3.0703 3.0703 0 0 0 -3.4688 0.125s-0.24631 0.18979-0.78125 0.53125a3.0703 3.0703 0 0 0 -0.0312 0.0312c-0.0855 0.0565 0.008 0.001-0.1875 0.125-0.44789 0.27959-0.95249 0.58728-1.5 0.875 0.7973-2.4889 0.64408-5.1219 0.40625-7.375-0.26632-2.523-0.64021-3.7404-0.875-4.625 0.68172-1.2453 16.203-29.582 23.812-43.188 2.5329-2.2434 4.7174-4.2198 5.9062-5.5 2.9258-3.1508 5.1661-7.382 5.8125-11.781 0.32318-2.1996 0.23841-4.4765-0.625-6.625s-2.5686-4.0812-4.9062-5.25c-4.0324-2.0162-7.5618-2.2291-10.25-2.9062-2.6882-0.67717-4.7434-1.5241-7.5312-5.0625-1.6213-2.0578-3.1361-4.4501-4.625-6.8438 0.028-0.0691 0.0671-0.11654 0.0937-0.1875-0.11491 0.30642 0.10771-0.13586 0.59375-0.71875s1.1981-1.3811 2.0312-2.3438c1.6663-1.9254 3.7926-4.5414 5.75-7.9688 1.0916-1.9058 2.1207-4.0519 3-6.4688 0.17736-0.4888 0.3703-0.99871 0.53125-1.5 0.33126-1.029 0.61634-2.0736 0.875-3.1562 0.26186-1.0988 0.47141-2.2656 0.65625-3.4375 0.37252-2.3671 0.59375-4.9287 0.59375-7.6875 0-1.392-0.0568-2.7534-0.125-4.0938-0.0347-0.68744-0.0731-1.3451-0.125-2.0312-0.0476-0.62787-0.0797-1.337-0.15625-2.0938-0.0768-0.76019-0.20204-1.4365-0.28125-2.0625-0.0885-0.698-0.17593-1.405-0.28125-2.0938-0.0503-0.3298-0.0959-0.66745-0.15625-1.0312-0.0415-0.24974-0.0763-0.58652-0.15625-1.0312-0.0553-0.30876-0.13636-0.6998-0.21875-1.125-0.0249-0.12776-0.0451-0.22487-0.0625-0.3125-0.24191-1.2213-0.52714-2.4399-0.8125-3.5938-0.0815-0.3287-0.15502-0.712-0.28125-1.1875-0.0674-0.25454-0.1252-0.49274-0.1875-0.71875-0.31065-1.1245-0.67419-2.2582-1.0312-3.3438-0.0546-0.16621-0.10221-0.30836-0.15625-0.46875-0.16611-0.49267-0.34496-1.0189-0.53125-1.5312-0.0385-0.10602-0.0747-0.20767-0.125-0.34375-0.21651-0.58493-0.43703-1.0926-0.625-1.5625a3.0703 3.0703 0 0 0 0 -0.0312c0.0198 0.0496-0.004-0.0281-0.0937-0.25-0.2079-0.51312-0.42186-1.0833-0.6875-1.6875-0.93399-2.1244-2.1398-4.0672-3.3125-6.0312 2.1614-1.9177 4.7583-3.8099 7.9688-4.8438 4.0211-1.2949 8.7548-1.4506 14.719 1.25 9.8562 4.4632 14.369 8.4716 16.969 11.75 2.5998 3.2784 3.2376 6.1645 5.8438 9.0312 0.66737 0.7341 1.9094 5.1672 2.2812 9.75 0.37189 4.5828 0.31531 9.1106 0.8125 12.094 0.57456 3.4474 2.7332 7.6792 4.6875 11.531 0.97715 1.926 1.9116 3.6261 2.5625 4.7812 0.32547 0.57755 0.55685 0.99676 0.78125 1.3438 0.0561 0.0868 0.11983 0.14941 0.21875 0.28125 0.0495 0.0659 0.0847 0.16888 0.21875 0.3125 0.067 0.0718 0.14402 0.14446 0.3125 0.28125 0.0842 0.0684 0.21388 0.15265 0.375 0.25 0.16112 0.0974 0.71783 0.31223 0.71875 0.3125s1.5618 0.0627 1.5625 0.0625c0.00036-0.00008 0.45029-0.30391 0.90625-0.59375 0.39615 0.8528 0.67094 1.575 1.0938 2.4688 2.8738 6.0746 6.2388 12.52 8.8125 16.875 5.7111 9.6649 16.594 13.25 16.594 13.25a3.0703 3.0703 0 0 0 2.4688 -0.21875c0.0184 0.0447 0.0441 0.0803 0.0625 0.125 1.757 4.2682 3.2812 8.25 3.2812 8.25a3.0703 3.0703 0 0 0 5.9375 -1.0938s-0.23395-2.1492-0.875-4.9062a3.0703 3.0703 0 0 0 4.35 -2.5s0.37766-3.6435 0.5625-8.1562 0.22758-9.8152-0.625-13.875c-0.5207-2.4794-1.4713-5.2432-2.5938-8.0312 0.56368 0.80882 1.1794 1.4572 1.7188 2.2812 4.7944 7.3244 8.7666 14.913 10.5 18.188 0.24975 0.47175 0.45811 0.84585 0.75 1.25 0.14595 0.20208 0.29048 0.38645 0.6875 0.71875 0.19851 0.16615 0.44975 0.40534 0.96875 0.59375s1.4376 0.28916 2.2812-0.0625c1.6872-0.70332 1.8306-1.9643 1.9062-2.4375 0.0757-0.47316 0.0482-0.73802 0.0312-0.96875-0.0338-0.46145-0.0992-0.79707-0.1875-1.2188-0.35329-1.6867-1.0998-4.204-2-7.0938-1.8003-5.7794-4.1272-12.584-5.0312-14.844-0.014-0.035-0.048-0.0899-0.0625-0.125 4.2978 4.9655 9.4688 10.906 9.4688 10.906a3.0703 3.0703 0 0 0 5.0625 -3.4375s-6.924-13.119-11.75-19.594c-0.5836-0.78297-1.5426-1.7168-2.2812-2.5938 1.927 0.6741 3.8759 1.3189 5.7188 1.6875 2.0004 0.40009 3.2509 0.63433 4.4688 0.625 0.30447-0.002 0.6112-0.0353 1.0312-0.125 0.42005-0.0897 1.0639-0.18944 1.8125-0.96875 0.74856-0.77931 0.99525-2.4258 0.71875-3.25-0.2765-0.82421-0.64691-1.1464-0.90625-1.4062-1.0374-1.0395-1.7862-1.2937-2.9688-1.875-1.1826-0.58134-2.6411-1.218-4.3125-1.9062-1.5208-0.62619-3.9805-2.5001-6.5-4.5938 1.3229 0.39696 2.8147 0.98485 3.9062 1.2188 6.1746 1.3231 18.219 1.5938 18.219 1.5938a3.0703 3.0703 0 0 0 0.59375 -6.0938s-2.9548-0.47423-6.5938-1.2812c-3.6389-0.80702-8.0026-2.0108-10.25-3.0625-0.0362-0.0169-0.0882-0.0761-0.125-0.0937 0.9029 0.17057 1.8825 0.47896 2.7188 0.5625 3.7578 0.37537 8.3894 0.17294 12.5-0.25 2.0553-0.21147 3.9556-0.46773 5.5625-0.78125 1.607-0.31352 2.7516-0.52828 4.0625-1.25a3.0703 3.0703 0 0 0 -1.55 -5.74c-12.938 0.36966-32.348-2.596-39.594-6.2188-3.0396-1.5198-8.1332-7.1667-14.312-14.688-6.1793-7.5208-13.758-16.876-23.344-25.875-9.9357-9.3274-20.236-11.993-29.844-11.219-9.6076 0.77414-18.505 4.6985-26.719 7.9375-5.0666 1.9979-9.6663 6.3842-13.75 10.906-3.2321 3.579-5.8292 7.0031-7.8125 9.75-1.7759-0.91481-3.606-1.7279-5.5938-2.3125-9.8211-2.8886-17.146-4.8852-23.594-5.4062-6.4477-0.52105-12.091 0.59323-17.562 3.75-9.6738 5.581-27.286 13.031-35.688 13.031-0.55248 0-1.551-0.19628-2.3125-0.28125 0.33179-1.9488 0.66297-3.8619 0.96875-6.0625 0.0691-0.49608 0.10784-0.91208 0.15625-1.2812 0.12529-0.95757 0.25185-1.8961 0.34375-2.75 0.1291-1.1926 0.22535-2.3206 0.28125-3.375 0.019-0.35766 0.0136-0.40877 0-0.15625 0.0238-0.48611 0.031-0.95239 0.0312-1.375 0.00001-0.041 0.00088-0.097 0-0.1875-0.003-0.36461 0.0362-0.77271-0.0312-1.375-0.43408-3.9068-2.7911-7.1079-4.6875-9.5312 0.00035 0.00045-0.0314-0.0309-0.0312-0.0312-0.0212-0.0271-0.0414-0.036-0.0625-0.0625a3.0703 3.0703 0 0 0 -0.0937 -0.125c-0.22453-0.27841-0.42788-0.55039-0.59375-0.75a3.0703 3.0703 0 0 0 -0.0312 0c-0.36061-0.43005-0.68361-0.80549-1-1.1562 0.004 0.005-0.0208-0.0184-0.0312-0.0312-0.002-0.003 0.003-0.0273 0-0.0312 0.25673-1.1705 1.1528-5.2818 2.5938-12.25 0.54444-2.6262 1.109-5.458 1.6875-8.3438 0.58145-2.9072 1.1751-5.8503 1.7188-8.7188 0.53713-2.8262 1.061-5.5472 1.5-8.0938 0.002-0.01-0.002-0.0217 0-0.0312a3.0703 3.0703 0 0 0 0 -0.0312c0.42918-2.4932 0.74271-4.7547 1-6.6562h0.0312c0.001-0.009-0.001-0.0225 0-0.0312 0.009-0.0534-0.006-0.0434 0-0.0937a3.0703 3.0703 0 0 0 0 -0.0312c0.005-0.0381-0.005-0.056 0-0.0937 0.25089-1.8781 0.4375-3.3701 0.4375-4.625 0-0.8084 0.0701-1.6467 0.15625-2.5a3.0703 3.0703 0 0 0 0 -0.0312c0.0394-0.41003 0.0132-0.17168 0-0.0625-0.007 0.0546 0.0179-0.21632 0-0.0312 0.082-0.78524 0.19661-1.6101 0.3125-2.5312 0.001-0.0112-0.001-0.02 0-0.0312 0.0374-0.3003 0.0834-0.50919 0.0937-0.59375 0.0838-0.70462 0.14329-1.4284 0.1875-2.1562 0.15406-2.3487 0.00071-5.0706-1.7812-7.375-1.782-2.3044-4.7249-3.5558-8.7188-4.0312-1.1364-0.13528-5.0752-1.0882-9.75-2.4375s-10.341-3.0721-15.906-4.7812c-5.5654-1.7091-11.024-3.4202-15.375-4.6875-2.1753-0.63364-4.0804-1.1504-5.5938-1.5312-1.5134-0.38083-2.3197-0.65625-3.6875-0.65625 0.0726 0-0.98824-0.24482-2.3125-0.90625s-2.9922-1.6256-4.8438-2.6875c-3.7031-2.1237-8.1109-4.6097-12.875-5.5625-9.0361-1.8072-15.441 1.2695-21.844 3.9375-5.8202 2.4251-10.408 1.9459-13.719 1 0.14428 0.0412-0.51687-0.40538-0.78125-0.5625l3.4688-0.5a3.0703 3.0703 0 0 0 0.78125 -5.8438 3.0703 3.0703 0 0 0 -1.5938 -5.25s-3.105-0.52706-6.5-1.0625c-1.6975-0.26772-3.4818-0.54551-5-0.75-1.1416-0.15376-1.9256-0.19705-2.75-0.25-0.19949-0.31374-0.51454-0.94849-0.71875-1.6875-0.21518-0.77871-0.34557-1.6413-0.34375-2.2812 0.002-0.63992 0.2423-1.0197 0.0625-0.75 0.22647-0.33971 2.8125-0.9375 2.8125-0.9375a3.0703 3.0703 0 0 0 2.625 -4.6562l2.125-1a3.0703 3.0703 0 0 0 -1.5938 -5.8438s-1.9261 0.18009-3.9375 0.3125c1.1151-1.0397 2.3697-2.2735 2.9375-2.5625 1.0232-0.52076 4.3263-1.0058 7.0938-1.0312 2.7674-0.0254 5.0625 0.1875 5.0625 0.1875a3.0703 3.0703 0 0 0 1.6562 -5.8125l-3.7188-1.8438a3.0703 3.0703 0 0 0 -2.0625 -4.5312s-2.9244-0.57438-5.7812-1.3125c-0.73762-0.19058-1.2742-0.39241-1.9375-0.59375 0.92306-0.62009 2.0098-1.1813 3.0938-1.375 0.001-0.00022 1.7164-0.14268 3.5938-0.15625 1.8773-0.0136 4.1754 0.0358 6.4062 0.0937s4.3841 0.12059 5.9688 0.21875c0.7923 0.0491 1.4514 0.11131 1.8438 0.15625 0.19617 0.0225 0.33244 0.0353 0.3125 0.0312-0.01-0.002-0.0399 0.0002-0.21875-0.0625s-0.551 0.13422-1.4062-1.0625l2.5-1.7812 1.0625-2.2188c4.042 0.41519 10.125 1.0625 10.125 1.0625a3.0703 3.0703 0 0 0 1.75 -5.7812c-3.3574-1.7564-6.9228-2.8982-10.531-3.8125a3.0703 3.0703 0 0 0 -1.5938 -4.875s-9.3409-2.601-14.969-3.0625c-3.2984-0.27051-7.4824-0.17623-11.625 0a3.0703 3.0703 0 0 0 -3 -2.4062s-1.6183-0.0194-3.5625-0.15625c-1.9442-0.13682-4.3436-0.54905-4.8125-0.75-2.1564-0.92415-4.6425-1.1874-7.1562-1.4375-2.5138-0.25014-4.8067-0.34375-5.9688-0.34375zm-20.93 182.72c-0.004-0.003 0.003-0.0289 0-0.0312a3.0703 3.0703 0 0 0 -0.0312 0.0312 3.0703 3.0703 0 0 0 0.0312 0zm-19.438-120.5c0.16636 0.31669 0.45503 1.047 0.1875 2-0.26753 0.95296-1.0857 1.6144-1.5312 1.8125l-1.125-2.5 2.4688-1.3125zm128.38 46.656c2.3674 0.56499 4.859 1.1721 7.875 1.8125 0.40342 0.0858 0.77955 0.1655 1.1875 0.25 2.2662 0.46918 4.4377 0.87262 6.2812 1.1562 6.3152 0.97157 13.643 1.7128 15.812 1.9375 0.69452 3.1268 3.972 17.998 4.4062 26.125 0.31113 5.8231-1.0831 13.837-1.1875 19.031-0.0114 0.56495 0.23285 0.11785-0.71875 0.78125s-2.8816 1.7253-4.8438 3.6875c-2.326 2.326-3.4244 5.3167-4.1562 7.7812-0.69098 2.3269-0.90696 4.0392-0.9375 4.25h-0.0312s-0.0291 0.24106-0.0312 0.25c-0.027 0.1144-0.37543 1.9997-0.625 3.1562-1.1332-1.0529-2.391-2.3835-3.5-3.8125-1.8671-2.4058-3.25-4.5938-3.25-4.5938a3.0703 3.0703 0 0 0 -5.1562 -0.0625c-0.75017-0.78958-1.5939-1.5671-2.2188-2.2812-3.1963-3.6529-5.9568-10.772-6.3438-13.094-0.0373-0.22371-0.27139-2.968-0.4375-6.25s-0.33647-7.4082-0.46875-11.531c-0.13228-4.1231-0.21858-8.2594-0.25-11.531-0.0157-1.6359-0.0209-3.039 0-4.125s0.10181-1.9859 0.0937-1.9375c0.45514-2.7308-0.24624-5.3031-0.875-8.25-0.10967-0.515-0.20614-1.0043-0.3125-1.4688 0.008 0.0359 0.002-0.0365-0.0625-0.3125-0.0854-0.36741-0.16471-0.6241-0.25-0.96875z"/>
    <path id="path4794" style="color:#000000" fill="#332216" d="m351.52 591.86c9.21 13.048 26.863 29.165 38.759 30.316 11.896 1.1512 34.538-2.3025 34.538-2.3025s-23.409 24.56-25.711 27.246c-2.3025 2.6862-15.35 11.896-16.501 18.036-1.1512 6.14 6.14 14.199 7.2913 18.036 1.1512 3.8375 13.048 34.538 21.874 43.364l12.28-33.77s-5.8244 4.3009-9.9775 3.4538c-4.4205-0.90165-16.63-29.347-12.28-18.036 0 0 9.21-1.535 9.9775-4.2212 0.7675-2.6863-0.38375-14.583-0.38375-14.583s30.316-24.944 35.305-30.316c4.9888-5.3725 8.0588-15.35 1.1512-18.804-6.9075-3.4538-12.48-0.79999-18.804-8.8263-9.9775-12.664-17.269-32.235-17.269-32.235z"/>
    <path id="path4858" style="color:#000000" fill="#241c1c" d="m424.03 692.78s-1.849 1.3955-4.2188 2.4375l-7.0938 8.7188-0.8125 3-1.0938-2.7188-1.875 2.1562-0.8125 3.2812-1.375-1.9062-5.1875 2.75c3.369 6.6832 6.9646 12.84 10.188 16.062 12.559-3.8606 19.182-14.862 26.875-24.562l-14.594-9.2188z"/>
    <path id="path4790" style="color:#000000" fill="#332216" d="m268.71 599.88s-16.127 12.651-22.27 16.484c-6.143 3.8328-27.655 31.83-27.655 31.83s18.015 28.028 22.619 28.799c4.6044 0.77104 14.967-1.5235 16.884 1.548 1.9164 3.0715-1.5415 8.4413-1.1598 11.128 0.3817 2.6865 5.7477 11.133 9.5858 10.369l1.8963 29.167s-14.572-13.442-19.555-21.121c-4.9828-7.6789-17.251-22.655-22.619-28.415-5.3681-5.7604-23.775-23.043-26.46-24.58-2.6851-1.5371-1.912-8.8277 1.1616-13.43 3.0736-4.6027 43.024-56.762 43.024-56.762z"/>
    <path id="path4845" style="color:#000000" fill="#241c1c" d="m276.3 695.06s-4.997 3.6584-8.7849 4.7745l-1.6588 3.3112-0.56438 2.4371-2.4369-0.81438-4.6288 4.8714 0.81 3.2506-3.2486-1.8775 0.55978 3.5317-1.9054-1.0952-0.34454 1.031c6.2142 7.0581 14.52 14.73 14.52 14.73 12.049-6.8898 17.639-16.568 22.645-26.483l-14.963-7.6678z"/>
    <path id="path4786" style="color:#000000" fill="#483737" d="m415.6 513.96s12.973-20.061 23.409-24.176c16.562-6.5308 34.538-14.966 53.341 2.6862 18.804 17.653 29.933 36.84 38.375 41.061 8.4425 4.2213 27.63 6.9075 41.061 6.5238-2.2343 1.2302-13.563 2.5956-20.339 1.9188-7.0467-0.70392-20.339-6.14-20.339-6.14s10.138 8.714 16.118 11.513c5.5078 2.5776 17.653 4.605 17.653 4.605s-12.28-0.38375-17.653-1.535c-5.3725-1.1512-16.885-5.7563-16.885-5.7563s11.129 12.28 17.653 14.966c6.5238 2.6862 9.5938 4.605 1.9188 3.07s-18.804-7.675-18.804-7.675 8.6546 8.5675 12.28 13.431c4.4576 5.9803 11.513 19.188 11.513 19.188s-13.815-16.118-17.653-20.339c-3.8375-4.2212-19.571-14.583-23.025-22.641-3.4538-8.0588-18.804-27.246-18.804-27.246s6.5238 9.21 7.675 11.896c1.1512 2.6862 19.955 26.863 21.874 28.781 1.9188 1.9188 13.815 18.036 15.35 21.874 1.535 3.8375 9.5938 28.014 6.14 21.49-3.4538-6.5238-16.118-30.7-26.479-35.689 0 0 9.2335 16.303 11.129 25.328 1.446 6.8852 0.00001 21.106 0.00001 21.106s-2.0155-21.63-8.8263-29.165c-2.2301-2.4674-9.21-3.8375-9.21-3.8375s6.9075 10.361 8.4425 13.815c1.535 3.4538 2.3025 14.199 4.2213 18.804s1.9188 8.0588 1.9188 8.0588-6.14-16.118-8.0588-18.42c-1.9188-2.3025-8.0588-9.5938-10.745-10.745l-20.92-52.283-26.994-25.963c-20.339-9.21-39.019 13.3-39.019 13.3z"/>
    <path id="path4835" style="color:#000000" fill="#241c1c" d="m448.72 505.66c-3.2096 0.0806-6.2659 0.42071-8.8438 1.0312-9.3972 2.2257-18.72 12.434-20.312 14.25l1.4688 2.5312 2.6875 3.25c2.1008-3.1996 13.466-18.762 31.781-10.469 20.339 9.21 19.975 17.279 23.812 21.5 3.8375 4.2212 3.0762 18.801 3.8438 23.406 0.7675 4.605 8.4121 18.264 7.6562 16.5-3.4538-8.0588-6.125-37.594-6.125-37.594s5.3575 22.261 6.125 27.25c0.7675 4.9888 9.23 22.245 14.219 30.688 4.9888 8.4425 14.938 11.906 14.938 11.906s-8.0462-8.0688-11.5-11.906c-3.4538-3.8375-2.3113-8.4325 0.375-7.2812 2.3525 1.0082 7.2236 6.5484 9.7188 9.5-0.67785-2.4024-1.6375-5.243-2.7188-7-2.1708-3.5276-8.6745-13.02-10.031-18.719-1.3568-5.6984-9.25-25.219-9.25-25.219s11.94 25.512 16.281 30.125c0.39959 0.42457 0.73096 0.71379 1.0625 1.0312-0.39853-0.60519-0.84375-1.25-0.84375-1.25s6.9886 1.3764 9.2188 3.8438c4.829 5.3427 7.2202 17.657 8.2188 24.438 0.31441 0.9128 0.8125 2.3125 0.8125 2.3125s-0.91016-16.492-4.625-23.594c-2.0453-3.9099-6.5052-7.3292-9.2188-9.5-2.7135-2.1708-20.879-28.784-24.406-38.281-3.5276-9.4973-17.66-24.42-21.188-28.219-2.6457-2.8492-13.527-4.7729-23.156-4.5312z"/>
    <path id="path4784" style="color:#000000" fill="#745b4b" d="m238.69 512.81-10.745 10.361 4.2213 1.9188-4.2213 3.8375h3.07s-3.8375 23.409-5.3725 29.549 6.5238 42.213 10.745 44.899c4.2212 2.6863 41.759 14.636 76.296 7.3452 34.538-7.2913 66.34-25.306 66.34-25.306l43.607 5.1242c1.1512-3.07 15.226-10.572 15.226-31.294 0-20.723-8.4425-45.283-28.014-51.039-19.571-5.7563-28.781-7.675-38.759-1.9188-9.9775 5.7563-27.246 13.431-37.224 13.431-9.9775 0-34.154-9.21-38.375-11.129-4.2212-1.9188-9.9775-11.129-9.9775-11.129l-0.38375 6.9075z"/>
    <path id="path4709" style="color:#000000" fill="#ddbc93" d="m167.45 331.47s-7.288 3.1438-10.544 6.9428c-3.2562 3.7989-16.029 8.4585-15.262 11.145 0 0 4.8844 4.8844 3.7989 7.0552-1.0854 2.1708-8.1406 16.824-8.1406 16.824l5.427-0.54271-1.0854 7.0552 0.54271 5.9698-4.3416 8.6833 4.3416 2.1708 30.934-7.0552 4.8844-1.0854s10.311 14.11 10.311 18.452c0 4.3416-1.6281 11.94-1.6281 11.94s-6.5125-2.1708-9.7687 3.2562-2.1708 17.909 0 22.251c2.1708 4.3416 5.427 10.311 5.427 10.311l-1.0854 32.02-11.397 2.7135s1.6281-8.1406-0.5427-8.6833-5.9698-1.0854-5.9698-1.0854-10.311-6.5125-13.025-6.5125c-2.7135 0-9.7687-1.0854-11.94-0.5427-2.1708 0.5427-2.7135 6.5125-2.7135 6.5125s-2.4422 4.3416-2.8492 6.7838c-0.20608 1.2365-0.0507 3.6959-0.43253 6.1438-0.53527 3.4313-1.6026 6.9709-1.6026 8.2379 0 2.1708 4.3834 4.5892 6.962 5.745 4.9551 2.221 13.019 1.2801 14.938-0.35084l1.9761-3.0013 7.6007-0.22198c10.943-1.5882 23.053 4.6951 31.848-11.397 0.54271-2.7135 4.5137-22.794 4.5137-22.794s13.568 16.281 14.653 19.537c1.0854 3.2562 11.94 10.311 11.94 10.311l9.226 13.568 1.6281 28.763s9.7687-12.482 13.025-14.11c3.2562-1.6281 6.5125-7.0552 6.5125-7.0552l1.6281 5.427 6.5125-9.7687 4.8844 1.0854 2.7135-3.7989 7.5979 5.427 9.7687-11.94s-6.5125-5.9698-10.311-10.311c-3.7989-4.3416-6.5125-11.397-7.0552-14.653-0.5427-3.2562-1.6281-33.105-1.0854-36.361 0.54271-3.2562-2.7135-14.653-2.7135-14.653s11.251 1.7044 18.307 2.7898c7.0552 1.0854 19.683 3.7226 19.683 3.7226s4.3655 19.052 4.8843 28.763c0.34294 6.4186-1.0911 14.614-1.1842 19.247-0.0636 3.1638-3.2177 3.3221-6.4739 6.5783s-4.2814 10.536-4.2814 10.536-1.6281 6.8984-1.6281 9.0692 4.613 3.7146 4.613 3.7146l-0.94974 6.4611c-0.5427 2.4422 3.5157 3.8081 7.7216 2.9941 2.3828-0.46119 4.5982 1.1158 6.44 1.2211 2.1748 0.12437 6.44-0.52163 6.44-0.52163s3.6514 2.2973 4.7368-0.41621 4.9173-18.995 4.3746-23.879c-0.5427-4.8844-7.4108-11.752-7.4108-11.752s9.853-41.704 9.853-49.302c0-7.5979 4.3416-14.924-7.0552-16.281-7.0057-0.83401-46.13-14.11-49.929-14.11-3.7989 0-12.482-7.5979-20.623-9.226-8.1406-1.6281-13.568 1.0854-20.08 3.7989-6.5125 2.7135-11.94 2.1708-15.738 1.0854-3.7989-1.0854-19.537-17.367-22.251-24.422-2.7135-7.0552 7.1868-22.383 7.1868-27.267 0-4.8844-12.071-16.692-16.956-17.778-4.8844-1.0854-19.781-3.4345-19.781-3.4345z"/>
    <path id="path4900" style="color:#000000" fill="#8e4d2e" d="m333.22 427.62-4.3438 2.5-0.5625 1.5312s1.9062 1.1525 1.9062 2.6875c0 1.2937-5.4876 39.098-7.3112 51.027-0.3401 2.2247-1.2075 2.3708-1.1774 2.4914 0.143 0.57203 2.8505 3.5283 4.4885 4.3255-1.451-1.8542-2.7812-3.1562-2.7812-3.1562s9.25-42.34 9.25-49.938c0-4.247 1.3252-8.3866 0.53125-11.469zm-2.97 72.66c-1.151 1.0842-2.4972 2.5907-2.1562 3.5 0.57563 1.535-2.4825 19.777-3.25 19.969-0.7675 0.19188-4.7812-0.1875-4.7812-0.1875s-4.2238 0.94187-5.375 0.75c-1.1512-0.19188-4.2188-1.9062-4.2188-1.9062h-8.0625l-1.75-2.2812-0.125 0.78125c-0.5427 2.4422 4.6065 4.7516 8.8125 3.9375 2.3828-0.46119 4.1269 1.1134 5.9688 1.2188 2.1748 0.12437 5.9688-0.65625 5.9688-0.65625s4.7583 1.3385 5.8438-1.375 3.6028-18.698 3.125-23.75zm-26.312 1.4062s-2.1205 6.4255-2.888 7.3849c-0.54763 0.68453-2.332 1.7544-4.112 2.1464 0.57533 2.0029 4.5312 3.875 4.5312 3.875l-0.1875 1.125c0.34098-4.9176 1.4418-9.6124 2.6562-14.531zm-105.85-111.97 2.97 29.03 2.44 4.87s-3.5281 1.0838-5.1562 0.8125c-1.6281-0.27135-2.1432-3.7812-3.5-3.7812s0.25678 3.788 2.1562 5.6875c1.8995 1.8995 5.7057 1.0953 7.0625 0.28125 1.3568-0.81406-0.8125-8.6875-0.8125-8.6875zm33.91 17.9l-22.656 16-0.40625 3.2812 0.68-1.9zm34.875 16.406-16.562 2.3125 0.8125 0.34375-1.625-0.34375 2.7812 0.84375 3.0938 1.3438c0.10924 1.068 0.71455 7.2872-0.15625 8.5312-0.94973 1.3568-4.487 15.342-5.8438 16.156-1.3568 0.81405-12.203 3.6448-15.188 4.1875-2.9849 0.54271-15.08-2.8406-16.844-4.4688-1.7638-1.6281-8.3691-13.759-8.6875-14.219-0.92995-1.3433-6.093-6.6448-6.5-7.1875-0.40702-0.5427-6.5-1.5312-6.5-1.5312s3.9107 2.4427 7.0312 5.1562c3.1206 2.7135 11.687 18.332 12.094 18.875 0.40703 0.54271-1.3612 7.8734-3.125 8.6875-1.7638 0.81406-16.289 3.3964-17.781 3.125l-2.0938-2.7812c-3.2386-5.3144-8.75-16.5-8.75-16.5l-0.40625 5.7188 1.3438-3.5312s5.5831 10.727 5.7188 11.812c0.0406 0.32446 0.52379 1.042 1.1562 1.875 0.90124 2.2409 2.5146 6.5528 2.375 8.4375-0.19188 2.5903-0.29499 10.954-1.0625 12.969-0.7675 2.0147-5.1875 6.0312-5.1875 6.0312s0.48906 2.4097 0.96875 5-9.3822 3.625-10.438 3.625c-1.0553 0-10-2.375-10-2.375l0.1875 4.2188s-3.6366-0.19031-4.5-1.4375c-0.86344-1.2472-3.0625-5-3.0625-5l1.1562-7.7812 1.8125-4.7812-4.6875-2.9688s-0.98468 4.6969-1.6562 5.6562c-0.67156 0.95938-11.875-1.4375-11.875-1.4375s11.498 3.0719 11.594 4.0312c0.0959 0.95937-0.007 6.6206-1.0625 6.8125-1.0553 0.19187-15.344-2.3125-15.344-2.3125s14.029 3.2884 14.125 4.3438c0.0959 1.0553-1.3996 5.0093-2.0312 4.7812-2.9226-1.0553-9.593-0.99799-12.312-1.5625 2.718 0.57542 9.7664 1.936 9.4375 2.5938-0.47969 0.95938-0.49187 5.0159-2.2188 5.6875-1.2788 0.4973-5.1073-0.61572-9.125-0.71875 5.0283 2.145 13.728 1.9558 15.625 0.34375l1.9688-3 6.75-1s3.8 5.4427 10.312 8.1562c6.5125 2.7135 16.258 5.9468 17.344 1.0625 1.0854-4.8843 4.0823-17.88 4.625-20.594 0.54112-2.7056 4.042-22.633 4.0625-22.75l-2.5938-1.3438c3.0235-0.29213 17.537-2.6889 19.156-3.0625 1.7638-0.40703 1.6234-5.6935 2.4375-8 0.81405-2.3065 1.4878-1.6151 2.4375-1.3438 0.94973 0.27135 13.424 3.7812 14.781 3.7812 1.3568 0 13.434-2.019 15.469-2.9688 2.0351-0.94973 3.4161-4.4748 3.6875-6.7812 0.27135-2.3065 4.4763-16.01 5.9688-16.281 1.4924-0.27135 4.0578 2.1646 6.5 3.25 0.96501 0.4289 2.0688 1.2818 3.0625 2.1562-0.44111-2.1284-0.8986-3.9578-1.2812-5.4062-0.26304-0.99573-0.52019-1.9267-0.59375-2.1875-0.0138-0.0512-0.0937-0.40625-0.0937-0.40625s13.007 3.2583 20.062 4.3438c7.0552 1.0854 17.906 2.1875 17.906 2.1875s0.0601 0.17926 0.0625 0.1875l2.5312-2.6562s-4.9008-0.11511-7.75 0.15625c-2.8492 0.27135-38.25-7.4672-38.25-8.2812 0-0.81406 4.75-1.7812 4.75-1.7812zm-44.5 42.75s-0.94584 10.308-2.0312 12.75c-1.0854 2.4422 2.0221 13.718 1.3438 14.125-0.36267 0.2176-1.2044 0.49115-1.9688 0.71875 2.2806 1.7334 4.0909 2.9389 4.8438 3.4375-0.54645-1.6206-2.1341-6.6169-1.9062-8.7812 0.27135-2.5778 2.282-14.778 1.875-16.406-0.40703-1.6281-2.1562-5.8438-2.1562-5.8438zm-23.66 1.72c0.005 0.006 0.14071 0.20007 0.15625 0.21875v-0.125l-0.15625-0.0937zm32.062 1.9375s0.008 2.0305 1.0938 2.4375c1.0854 0.40703 9.4953 0.97865 11.938 1.25 2.4422 0.27135 14.914 4.051 16.406 4.5938 1.4924 0.54271 5.7188 4.75 5.7188 4.75s-2.8529-4.0617-3.5312-4.4688c-0.67838-0.40703-14.538-6.1242-16.438-6.5312-1.8995-0.40703-15.188-2.0312-15.188-2.0312zm-0.40625 7.875s3.125 6.3734 3.125 7.1875c0 0.81406 1.356 2.1753 0.40625 3.125-0.94973 0.94974-5.8438 4.75-5.8438 4.75s6.6646-4.875 7.75-4.875 3.6662 2.0182 3.9375 3.375c0.27136 1.3568 2.9688 7.1951 2.9688 8.6875s-5 3.9375-5 3.9375 5.4154-2.4276 6.0938-2.1562c0.67839 0.27135 2.8438 7.9878 2.8438 8.9375 0 0.94973-1.0938 13.312-1.0938 13.312s2.0312-8.0167 2.0312-10.188c0-2.1708-2.0312-11.656-2.0312-11.656s5.9755-1.9268 7.875-2.0625c1.8995-0.13568 10.719-0.40625 10.719-0.40625s-3.2453-0.53125-5.6875-0.53125 1.9062-1.75 1.9062-1.75-11.278 2.5625-12.906 2.5625c-1.6281 0-2.8536 0.39713-3.125-0.28125-0.27135-0.67838-4.6143-10.561-4.75-11.375-0.13568-0.81406 0.55938-2.301 2.1875-2.8438 1.6281-0.5427 4.75-1.6562 4.75-1.6562s-7.3193 2.3232-9.2188 2.1875c-1.8995-0.13568-6.9375-8.2812-6.9375-8.2812zm-45.59-113.26s0-2.8781 2.1106-4.605 10.937-9.0181 11.321-7.4831c0.38375 1.535-4.2213 3.2619-4.2213 4.0294s2.8781 0.7675 2.4944 1.7269c-0.38375 0.95938-4.4131 0.95938-6.14 1.7269-1.7269 0.7675-4.4131 3.07-3.6456 4.9888s-2.1106 7.0994-2.1106 7.0994zm-27.245-17.659s-10.737 1.7194-11.312 3.0625c-0.57562 1.3431 0.75 6.1562 0.75 6.1562s-0.15948 0.49192 0.91459 0.91693l11.367 16.927-8.4375-16.312c0.31394 0.12824 2.3738 0.68645 2.5969 0.78203 1.3431 0.57562 11.216-2.1258 11.216-2.1258s-5.7412-0.18813-6.125-1.5312c-0.38375-1.3431-0.96875-7.875-0.96875-7.875zm37.031 24.812s-3.347 7.5155-7.0625 4.4688c-0.99529-0.81615-4.875 2.3125-4.875 2.3125s-3.6807 3.6654-3.8125 4.4688c-0.47969 2.9247-12.194 6.6555-14.5 7.0625-2.3065 0.40703-16.844 3.4062-16.844 3.4062l0.59375 1.5 25.062-5.7188 4.86-1.09s1.6175 2.2276 3.5625 5.1562c0.14962-0.93848 0.30883-2.4342 0.375-4.75 0.13567-4.7487-1.0336-7.3039-0.62656-7.8466 0.40703-0.54271 2.5297-2.8631 4.1578-2.1847 1.6281 0.67838 3.356 0.77041 4.8394 0.135 2.6337-1.1281 5.7544-6.385 5.7544-6.385zm-2.1116-20.37c-1.7638 0.67838-8.2506 5.9248-9.21 7.4599-0.95937 1.535-2.1106 2.6862-2.1106 2.6862l2.1106-4.7969 10.745-8.2506z"/>
    <path id="path4711" style="color:#000000" fill="#483737" d="m159.26 336.67s4.605-6.9075 7.2913-6.5238c2.6863 0.38375 9.9775 0.38375 9.9775 0.38375s5.3725-2.3025 7.2913-2.3025 9.21 0.38375 11.896 1.535c2.6862 1.1513 9.5938 1.1513 9.5938 1.1513l-11.896 3.4538s17.538-1.7786 26.273-1.0621c4.8868 0.40077 14.404 2.9809 14.404 2.9809l-14.583 2.3025c9.2204 0.87195 18.3 2.0619 26.095 6.14 0 0-7.7914-0.83734-11.629-1.2211-3.8375-0.38375-7.9424 1.6048-7.9424 1.6048l8.0588 3.8375c-0.33071-0.463-16.936-0.94024-19.529-0.47687-3.9592 0.70752-7.3338 3.9306-7.3338 5.4656s11.896 3.8375 11.896 3.8375l-5.7563 0.76751 10.745 5.3725s-9.6968-0.94477-13.815 1.1513c-3.3139 1.6866-8.8263 8.0588-7.2913 8.4425 1.535 0.38375 9.9775-0.38375 9.9775-0.38375l-6.5238 3.07 3.07 2.3025s-3.8375 0-5.3725 2.3025 0.36047 9.3882 2.663 9.3882 14.606 2.1243 14.606 2.1243-5.5365 0.74519-6.9075 1.535c-4.0164 2.3138 7.564 3.8386 8.0588 3.4538l-10.361 1.535-3.8375-0.7675-7.675-11.513-4.2212-4.9888-0.31791-3.9499-2.6562-3.5332s8.3466-18.228 8.3466-20.531c0-2.3025 1.2554-6.3318-4.9888-3.07-1.8893 0.9869-3.1403 1.5825-6.0442 2.565-3.2317-3.459-9.3617-9.5772-7.7708-9.8563l5.7563-1.535c-2.2659-2.0576-3.884-5.5116-8.0588-3.4538 0 0-1.7405-2.5466-0.79078-3.7677-5.1263-0.52195-5.278 0.22941-6.5005 1.0814 0 0-1.8762-4.7174-4.5624-3.1824s-9.6363 4.3336-9.6363 4.3336z"/>
    <path id="path4713" style="color:#000000" fill="#483737" d="m143.52 348.56 3.07 3.8375 13.815-4.605s-1.1513-3.8375-2.6863-3.07-14.199 3.8375-14.199 3.8375z"/>
    <path id="path4715" style="color:#000000" fill="#483737" d="m140.83 388.36c-1.3875 0.61667 6.0148 4.8945 8.2763 4.4773 0.56607-0.10442 4.206 2.1708 0.27135 2.9849 0 0-4.3793 0.98229-6.1054 2.3065-2.8281 2.1696-5.4271 6.6481-6.2411 8.6833-0.75751 1.8938-1.8995 5.5627-1.8995 5.5627s-4.4773 1.3568-4.7487-1.3568c-0.27135-2.7135 0.54574-11.692 3.3919-16.553 1.5716-2.6837 7.0552-6.1054 7.0552-6.1054z"/>
    <path id="path4717" style="color:#000000" d="m150.43 354.51 1.535 2.6863 14.774-0.57563s-7.2913-0.38375-8.8263-0.7675-3.2619-3.6456-3.2619-3.6456z"/>
    <path id="path4727" style="color:#000000" fill="#cf8451" d="m176.33 364.3c-4.3442 0.13769-10.937 7.0994-10.937 7.0994s-0.7675 2.3025-3.8375 5.7563-7.8669 6.5238-7.8669 6.5238-3.2619 0.7675-1.535 1.535 14.966-3.4538 19.955-7.675c4.9888-4.2213 8.8263-9.9775 7.2913-11.513-1.535-1.535-1.8965-1.7641-3.07-1.7269z"/>
    <path id="path4867" style="color:#000000" fill="#2c5aa0" d="m169.12 359.69c-1.1219 0.0649-1.1893 1.5148-0.40215 2.0865 1.8336 2.6129 3.246 5.5071 4.4022 8.476 0.0174 0.76421 0.7168 1.4858 1.5905 1.3846 0.99667 0.0271 1.7532-1.051 1.3946-1.9823-0.77133-2.1162-1.9368-4.0622-3.0094-6.0359-0.72182-1.1703-1.2971-2.4934-2.3518-3.4113-0.45647-0.35473-1.0396-0.58263-1.6239-0.51759zm-4.5938 1.9375c-1.1289 0.0426-1.1872 1.4877-0.40293 2.055 1.6811 2.3949 2.9512 5.053 4.1106 7.7309 0.3836 0.72982 0.20306 1.6971 1.127 2.0128 0.86728 0.35592 2.1229-0.0629 2.2154-1.1041 0.0503-1.0741-0.63745-1.9973-1.0297-2.953-1.1307-2.2398-2.3072-4.4708-3.7382-6.5354-0.51585-0.7232-1.3592-1.3041-2.2823-1.2063zm-5 2.4688c-1.1219 0.0649-1.1893 1.5148-0.40215 2.0865 1.8336 2.6129 3.246 5.5071 4.4022 8.476 0.0174 0.76421 0.7168 1.4858 1.5905 1.3846 0.99667 0.0271 1.7532-1.051 1.3946-1.9823-0.77133-2.1162-1.9368-4.0622-3.0094-6.0359-0.72182-1.1703-1.2971-2.4934-2.3518-3.4113-0.45647-0.35473-1.0396-0.58263-1.6239-0.51759z"/>
    <path id="path4911" style="color:#000000" fill="#332216" d="m431.97 529.78c-0.20148 6.6265-0.52263 18.641-0.25 24.094 0.38375 7.675-10.736 17.278-19.562 18.812-8.8263 1.535-48.743-3.4675-56.034-0.3975-7.2913 3.07-14.202 23.418-51.81 28.022-8.1094 0.99298-4.8975-12.602-10.241-22.646-16.104-5.6671-49.634 8.427-49.634 8.427l-5.625 18.438c9.5887 4.0407 42.618 13.814 73.562 7.2812 34.538-7.2913 68.688-22.625 68.688-22.625l38 7.6562s3.8175-2.305 4.9688-5.375c1.1512-3.07 13.844-11.496 13.844-32.219 0-9.7596-1.8804-20.372-5.9062-29.469z"/>
    <path id="path5784" style="color:#000000" fill="#493120" d="m227.69 576.88c0.7456 3.6562 1.6284 7.4092 2.5625 10.938l19.701-17.333c-8.0104-1.839-14.253 16.332-22.263 6.3958z"/>
    <path id="path4788" style="color:#000000" fill="#745b4b" d="m245.99 555.69s-6.3842 22.453-8.2524 25.332c-1.8682 2.8794-29.218 16.026-33.713 18.224-4.4948 2.1982-9.4566 5.1162-9.7565 7.7856-0.29992 2.6695 0.0301 10.044 3.7536 14.71 3.7236 4.6662 16.231 34.261 16.818 39.348 0.58706 5.0861 6.3476 14.866 7.6486 17.851 1.5094 3.4631 34.951 32.019 36.961 28.481l-2.6448-23.742s-5.8752-1.4621-12.358-2.1905c-13.248-2.5868-4.6522-11.02-7.5704-16.642-7.5018-14.175-11.225-8.33-13.248-16.569l-8.1479-33.186s34.263-11.734 42.657-14.266c8.394-2.5324 27.59-0.12337 33.824-4.0569 6.2344-3.9335 25.053-40.822 25.053-40.822z"/>
    <path id="path4792" style="color:#000000" fill="#745b4b" d="m368.02 547.35s-13.815 27.246-8.0588 45.283c5.7563 18.036 46.818 37.608 52.574 37.991 5.7563 0.38376 8.4425 6.14 7.675 9.9775-0.76751 3.8375-18.922 34.407-28.014 51.806-7.2327 13.842-19.571 29.549-21.106 41.829l37.224-19.571s-15.315-6.8348-8.0588-13.431c4.2213-3.8375 12.866-5.2103 15.35-8.0588 3.326-3.8139 0.38375-13.815 0.38375-13.815s24.56-44.899 28.014-50.655c3.4538-5.7563 0.38375-10.745-4.9888-11.896-5.3725-1.1512-21.975-9.8573-16.153-21.74 5.8375-11.914 10.022-8.3888 13.858-26.26 3.3121-15.428-4.217-40.237-6.217-41.487z"/>
    <path id="path5779" style="color:#000000" fill="#493120" d="m302.28 578.25s-9.1949 13.084-13.438 13.438c-4.2426 0.35356-69.285 18.021-71.406 18.375-2.1213 0.35355-10.594 0.71875-10.594 0.71875l6.6875 4.5938 8.5 33.938c0.70711 2.8284 6.0251 4.6072 8.5 6.375s4.2384 12.359 3.5312 15.188c-0.7071 2.8284-1.0588 8.8554 1.0625 9.5625s19.094 5.6562 19.094 5.6562l7.0312-12.531-4.125-0.375s-5.5483 8.2596-12.031 7.5312c-13.248-2.5868-4.2068-10.253-7.125-15.875-7.5018-14.175-10.922-8.5979-12.781-16.875l-7.19-32.08s31.762-11.093 40.156-13.625c8.394-2.5324 27.578-1.5352 33.812-5.4688 2.5825-1.6294 7.3309-8.9318 12-16.906l-1.6875-1.625z"/>
    <path id="path4840" style="color:#000000" fill="#241c1c" d="m273.19 674.61-16.066-1.4277s-3.2584 4.7947-7.6764 6.7476l0.24497 2.8577-1.9536 0.3151-0.0555 3.0126-1.9536 0.3151-4.0775 7.1834 1.4334 1.7963-2.5402 0.21776c8.875 7.2063 17.879 13.593 18.894 11.808 6.4197-10.735 12.34-21.529 13.751-32.826z"/>
    <path id="path4850" style="color:#000000" fill="#241c1c" d="m408.16 714.59-4.6562 0.75-0.8125 1.625-2.4375-1.9062-11.688 0.28125-6.5 2.4375 1.625-2.4375-3.5312 1.625 0.5625-1.625-2.1562 0.1875c-3.7533 6.6159-6.7594 13.013-7.4688 18.688 10.579 2.1232 22.281 1.969 34.906 0l2.3125-19.562s-0.13161-0.0513-0.15625-0.0625z"/>
    <path id="path5789" style="color:#000000" fill="#493120" d="m433.91 535.84c0.79001 7.863 1.0629 14.178 1.0938 21.281 0.10307 23.702-13.75 26.75-17.25 33.25s-0.75 14 3.25 16.75c1.9704 1.3546 6.5481 6.2128 10.688 6.5-6.2486-3.7478-12.839-10.409-8.8438-18.562 5.8375-11.914 10.038-8.3792 13.875-26.25 2.1586-10.055-0.29319-24.063-2.8125-32.969zm11.25 89.094c-1.2812 0.125-2.7812 0.5625-3.6562 1.6875-1.75 2.25-23.75 43.75-25.5 47-1.5415 2.8627 1.0082 8.8283 0.4375 16.531-1.3125 0.0983-2.694 0.42391-3.6875 1.2188-2.5 2-15.75 5.5-16.75 9.25-0.34697 1.3011 0.76216 3.0703 2.3438 4.8438-0.15448-1.3737 0.3416-2.8276 1.9062-4.25 4.2213-3.8375 12.86-5.214 15.344-8.0625 3.326-3.8139 0.40625-13.812 0.40625-13.812s24.546-44.9 28-50.656c0.78236-1.3039 1.2131-2.5605 1.375-3.75-0.0752 0.005-0.1418-0.008-0.21875 0z"/>
    <path id="path5794" style="color:#000000" fill="#666" d="m378.87 717.5c-2.674 5.9656-5.3618 12.49-6.2073 17.07l2.5494 0.33253c0.44737-4.8046 2.0358-10.544 5.5423-16.959z"/>
  </g>
  <metadata>
    <rdf:RDF>
      <cc:Work>
        <dc:format>image/svg+xml</dc:format>
        <dc:type rdf:resource="http://purl.org/dc/dcmitype/StillImage"/>
        <cc:license rdf:resource="http://creativecommons.org/licenses/publicdomain/"/>
        <dc:publisher>
          <cc:Agent rdf:about="http://openclipart.org/">
            <dc:title>Openclipart</dc:title>
          </cc:Agent>
        </dc:publisher>
        <dc:title>centaur</dc:title>
        <dc:date>2012-06-24T15:50:10</dc:date>
        <dc:description>centaur, clip art, clipart, mythology, run, </dc:description>
        <dc:source>http://openclipart.org/detail/170894/centaur-by-tzunghaor-170894</dc:source>
        <dc:creator>
          <cc:Agent>
            <dc:title>tzunghaor</dc:title>
          </cc:Agent>
        </dc:creator>
        <dc:subject>
          <rdf:Bag>
            <rdf:li>centaur</rdf:li>
            <rdf:li>clip art</rdf:li>
            <rdf:li>clipart</rdf:li>
            <rdf:li>mythology</rdf:li>
            <rdf:li>run</rdf:li>
          </rdf:Bag>
        </dc:subject>
      </cc:Work>
      <cc:License rdf:about="http://creativecommons.org/licenses/publicdomain/">
        <cc:permits rdf:resource="http://creativecommons.org/ns#Reproduction"/>
        <cc:permits rdf:resource="http://creativecommons.org/ns#Distribution"/>
        <cc:permits rdf:resource="http://creativecommons.org/ns#DerivativeWorks"/>
      </cc:License>
    </rdf:RDF>
  </metadata>
</svg>