<?xml version="1.0" encoding="UTF-8"?>
<svg xmlns:rdf="http://www.w3.org/1999/02/22-rdf-syntax-ns#" xmlns="http://www.w3.org/2000/svg" xmlns:cc="http://creativecommons.org/ns#" xmlns:xlink="http://www.w3.org/1999/xlink" xmlns:dc="http://purl.org/dc/elements/1.1/" xmlns:svg="http://www.w3.org/2000/svg" id="svg2443" viewBox="0 0 2436.7 3133.6" version="1.0">
  <defs id="defs2446">
    <linearGradient id="linearGradient3516">
      <stop id="stop3518" stop-color="#80ada3" offset="0"/>
      <stop id="stop3520" stop-color="#8eb6ad" stop-opacity="0" offset="1"/>
    </linearGradient>
    <linearGradient id="linearGradient3476" y2="2663.2" gradientUnits="userSpaceOnUse" x2="971.92" y1="77.83" x1="1429.1">
      <stop id="stop3472" stop-color="#aef" offset="0"/>
      <stop id="stop3474" stop-color="#6f917c" offset="1"/>
    </linearGradient>
    <linearGradient id="linearGradient2536" y2="1057.4" xlink:href="#linearGradient3516" gradientUnits="userSpaceOnUse" x2="1909" y1="1261.2" x1="1897.3"/>
    <linearGradient id="linearGradient2538" y2="1057.4" xlink:href="#linearGradient3516" gradientUnits="userSpaceOnUse" x2="1909" gradientTransform="translate(0,-2)" y1="1261.2" x1="1897.3"/>
    <linearGradient id="linearGradient2726" y2="1320.2" gradientUnits="userSpaceOnUse" x2="176.71" gradientTransform="matrix(.87940 0 0 .87208 -13.36 165.03)" y1="1964.1" x1="184.4">
      <stop id="stop2730" stop-color="#7da79b" offset="0"/>
      <stop id="stop2732" stop-color="#7faaa0" offset="1"/>
    </linearGradient>
  </defs>
  <g id="layer4" fill-rule="evenodd" transform="translate(93.296 266.82)">
    <rect id="rect3354" height="3133.6" width="2436.7" y="-266.82" x="-93.296" fill="url(#linearGradient3476)"/>
    <path id="path3479" d="m1962 1273c-111.44 0-201.88 39.501-201.88 88.188 0 48.686 90.437 88.188 201.88 88.188s201.88-39.501 201.88-88.188c0-48.686-90.437-88.188-201.88-88.188zm1.9687 35.281c58.424 0 105.84 16.662 105.84 37.219 0 20.556-47.42 37.25-105.84 37.25-58.424 0-105.84-16.694-105.84-37.25s47.42-37.219 105.84-37.219z" stroke-width="0" stroke-miterlimit="3.9668" fill="#80ada3"/>
    <g id="g3507" transform="translate(584.08,697.76)" fill="#80ada3">
      <path id="path3481" d="m1317.3 696.78c-3.6666-0.0678-7.1476 1.6095-9.3794 4.5195s-2.9492 6.7068-1.933 10.23c15.355 56.199 1.3088 131.02-26.594 206.06-27.903 75.045-69.142 150.2-105.34 208.13-18.068 28.91-37.235 48.579-61.094 72.437-4.5132 4.5132-4.5132 11.83 0 16.344 4.5131 4.5133 11.83 4.5133 16.344 0.0001 23.971-23.971 44.868-45.37 64.344-76.531 36.778-58.846 78.673-135.03 107.41-212.31 28.734-77.28 77.674-144.04 60.064-208.49-1.2987-5.0204-38.629-20.291-43.814-20.387z"/>
      <path id="path3483" d="m1430.2 700.72c-3.8133 0.211-29.173 14.806-31.147 18.075-1.4909 44.746 1.6157 88.667 21.651 147.29 28.762 80.972 94.581 199.61 122.62 233.88 16.689 20.397 41.343 50.642 69.688 77.344 28.344 26.701 60.225 50.438 94.156 56.094 6.2995 1.0528 12.26-3.2005 13.312-9.5 1.0528-6.2995-3.2005-12.26-9.5-13.312-25.476-4.2461-55.303-24.797-82.156-50.094s-50.912-54.76-67.625-75.188c-23.025-28.142-63.188-109.39-91.344-188.66-14.078-39.633-25.416-79.052-30.969-111.47-5.5528-32.416-3.8122-57.907 1.6563-66.656 2.3643-3.6503 2.4779-8.3193 0.2939-12.08-2.184-3.761-6.2954-5.9765-10.638-5.7322z"/>
      <path id="path3485" d="m1379.7 708.56c-4.4919 0.006-8.5729 2.6159-10.463 6.6908-1.89 4.0749-1.2463 8.876 1.6503 12.309-0.6286-0.76838 1.8679 4.544 2.625 12.875 0.7572 8.331-31.262 1.7368-31.844 14.982 37.962 94.841 8.4184 188.46 3.0945 286.27 0.0001 80.727-8.4377 171.56 12.094 253.69 0.9764 4.0337 4.0416 7.2335 8.0296 8.3822 3.988 1.1488 8.2857 0.07 11.258-2.8263 2.9725-2.8962 4.1629-7.1644 3.1183-11.181-19.178-76.71-11.406-165.81-11.406-248.06-6.3636-98.67 36.118-188.13 53.994-281.36 0.6083-13.844-24.422-11.907-25.338-21.986s-1.7097-18.024-7.75-25.406c-2.1934-2.7667-5.5317-4.3783-9.0624-4.375z"/>
    </g>
    <g id="g3512" stroke-width="0" stroke-miterlimit="3.9668">
      <path id="path3491" d="m1963.3 1165.2c-74.287 0-134.57 26.332-134.57 58.788 0 32.455 60.287 58.788 134.57 58.788 74.286 0 134.57-26.332 134.57-58.788 0-32.455-60.287-58.788-134.57-58.788zm1.3124 23.519c38.946 0 70.557 11.107 70.557 24.811 0 13.703-31.611 24.832-70.557 24.832s-70.558-11.128-70.558-24.832c0-13.703 31.611-24.811 70.558-24.811z" fill="url(#linearGradient2536)"/>
      <path id="path3493" d="m1963.9 1055.4c-74.287 0-134.57 26.332-134.57 58.788 0 32.455 60.287 58.788 134.57 58.788 74.286 0 134.57-26.332 134.57-58.788 0-32.455-60.287-58.788-134.57-58.788zm1.3124 23.519c38.946 0 70.557 11.107 70.557 24.811 0 13.703-31.611 24.832-70.557 24.832s-70.558-11.128-70.558-24.832c0-13.703 31.611-24.811 70.558-24.811z" fill="url(#linearGradient2538)"/>
    </g>
    <path id="path2550" d="m135.97 1316.3c-47.67 0-86.374 16.765-86.374 37.418 0 15.973 23.165 29.63 55.705 34.992-32.32 5.4101-55.265 18.978-55.265 34.883 0 14.83 19.939 27.633 48.834 33.684-52.807 7.0858-91.183 28.434-91.183 53.633 0 25.411 39.036 46.866 92.53 53.769 0.0207 6.7557-0.63437 14.841-2.171 23.737-3.5632 20.628-10.835 45.691-19.869 70.911-18.068 50.441-43.842 102.17-58.618 120.08-10.725 12.999-26.161 31.73-43.393 47.828s-36.388 29.184-52.737 31.886c-4.0424 0.6699-6.7764 4.4668-6.1008 8.4756 0.67558 4.0087 4.5043 6.7199 8.5467 6.05 21.774-3.5988 42.243-18.709 60.431-35.701 18.189-16.992 34.003-36.238 44.712-49.218 17.993-21.809 60.222-97.299 78.679-148.83 3.6016-10.451 6.3387-20.151 8.4093-29.351 12.626 46.077 28.737 91.78 25.53 141.09-0.00007 52.345 4.9962 109.03-7.31 157.85-0.67032 2.556 0.0987 5.2699 2.0061 7.1129 1.9075 1.843 4.6685 2.5297 7.2276 1.7987s4.5124-2.7474 5.139-5.3143c13.175-52.262 7.7496-110.07 7.7497-161.44-2.8888-52.63-16.875-103.35-6.4031-154.25 8.52 25.213 23.712 51.677 34.489 80.422 18.438 49.178 45.322 97.644 68.923 135.09 12.498 19.83 25.894 33.446 41.277 48.7 2.8961 2.872 7.6018 2.8721 10.498 0 2.8961-2.8721 2.8961-7.5113 0-10.383-15.31-15.182-27.594-27.714-39.188-46.111-23.231-36.86-49.699-84.692-67.604-132.45-14.386-38.369-23.043-76.625-20.776-108.74 50.678-7.6187 87.088-28.466 87.088-53.006 0-25.368-38.901-46.829-92.255-53.769 28.566-6.1028 48.257-18.822 48.257-33.548 0-15.973-23.166-29.602-55.705-34.965 32.321-5.41 55.265-19.005 55.265-34.91 0-20.653-38.676-37.418-86.346-37.418zm-0.85192 14.989c24.992 0 45.289 7.059 45.289 15.779 0.00007 8.7203-20.297 15.806-45.289 15.806-24.992-0.0001-45.262-7.0863-45.262-15.806 0-8.7203 20.27-15.779 45.262-15.779zm0.4397 69.876c24.992 0 45.262 7.0591 45.262 15.779 0.00007 8.7202-20.27 15.806-45.262 15.806s-45.289-7.0862-45.289-15.806c0-8.7202 20.297-15.779 45.289-15.779zm0.41222 76.062c37.491 0 67.906 10.601 67.906 23.682 0.00008 13.081-30.416 23.71-67.906 23.71-37.491 0-67.934-10.628-67.934-23.71 0-13.081 30.443-23.682 67.934-23.682z" stroke-width="0" stroke-miterlimit="3.9668" fill="url(#linearGradient2726)"/>
  </g>
  <g id="layer2" transform="translate(93.296 266.82)">
    <g id="g4017">
      <path id="path3300" d="m777 1483 3.96-135.8-34.46-135.7-30.5-271.5c-14.168-77.514 42.906-100.23 96-126 120.92-33.073 200.51 4.2415 216 72 15.494 67.758 63.065 308.93 28.802 395.95-34.106 86.62 2.2066 82.718-0.8022 174.05-92.504 22.293-181.36 56.055-279 27z" fill-rule="evenodd" stroke="#1c2224" stroke-linecap="round" stroke-miterlimit="3.9668" stroke-width="4.6063" fill="#dbe2e3"/>
      <g id="g3676" transform="translate(5.7224 15.737)">
        <path id="path2746" d="m854.74 2656-1.2291 102.02-41.79 2.4582-25.812-62.685 68.831-41.79z" fill-rule="evenodd" stroke="#1c2224" stroke-width="4.6063" fill="#a40"/>
        <path id="path2740" d="m788.85 2607.9c-82.363-14.137-167.91 98.019-212.2 157.78 0 0 117.34 14.2 179.63-28.194s98.607-83.974 98.607-83.974c-11.878-27.241-39.693-47.304-66.037-45.612z" fill-rule="evenodd" stroke="#1c2224" stroke-width="4.6063" fill="#d45500"/>
        <path id="path2752" d="m737.94 2590.9c-53.017 10.933-81.618 61.782-93.424 106.54 0 0 72.495 4.7442 112.59-18.492 40.096-23.236 63.474-46.026 63.474-46.026 3.7989-26.376-29.556-52.29-82.64-42.022z" fill-rule="evenodd" stroke="#1c2224" stroke-width="4.6063" fill="#93a7ac"/>
        <path id="path3656" d="m758.59 2590.7c-26.54 0.1505-52.808 11.268-71.094 30.5 25.127 27.206 72.406 27.878 98.356 1.599 6.3401-6.2194 11.422-13.934 14.394-22.443-12.477-7.4692-27.227-9.9498-41.656-9.6563z" fill="#80989e" fill-rule="evenodd"/>
        <path id="path3524" d="m672.83 2688c8.4285-39.923 25.872-62.21 56.539-88.497" stroke="#1c2224" stroke-dasharray="5.31496063, 21.25984252" stroke-width="5.315" fill="none"/>
        <path id="path3570" stroke-linejoin="round" d="m770.95 2601.7c0 3.1241-4.4116 5.6567-9.8536 5.6567s-9.8536-2.5326-9.8536-5.6567 4.4116-5.6567 9.8536-5.6567 9.8536 2.5326 9.8536 5.6567z" fill-rule="evenodd" transform="matrix(1.2879 0 0 1.4209 -222.56 -1098)" stroke="#1c2224" stroke-linecap="round" stroke-width="3.4051" fill="#627081"/>
        <path id="path3551" stroke-linejoin="round" d="m728.34 2382.1 29.177 211.57" stroke="#2b3538" stroke-linecap="round" stroke-miterlimit="3.9668" stroke-width="17.717" fill="none"/>
      </g>
      <g id="g3559" stroke="#000" stroke-width="7.5237" transform="matrix(.61224 0 0 .61224 -204.56 1463.3)">
        <path id="path3561" stroke-linejoin="round" d="m1626 1600c0 39.764-32.236 72-72 72s-72-32.236-72-72 32.236-72 72-72 72 32.236 72 72z" fill-rule="evenodd" transform="translate(-12,-18)" stroke="#000" stroke-linecap="round" stroke-width="7.5237" fill="#93a7ac"/>
      </g>
      <path id="path3478" d="m568.17 2194s-9.4042 185.73 108.15 211.59c117.55 25.861 173.98-2.3511 173.98-2.3511l-72.882-188.08-209.24-21.159z" fill-rule="evenodd" stroke="#1c2224" stroke-linecap="round" stroke-miterlimit="3.9668" stroke-width="4.6063" fill="#93a7ac"/>
      <g id="g3685" transform="matrix(-1 0 0 1 1879.2 28.89)">
        <path id="path3687" d="m854.74 2656-1.2291 102.02-41.79 2.4582-25.812-62.685 68.831-41.79z" fill-rule="evenodd" stroke="#1c2224" stroke-width="4.6063" fill="#782121"/>
        <path id="path3689" d="m788.85 2607.9c-82.363-14.137-167.91 98.019-212.2 157.78 0 0 117.34 14.2 179.63-28.194s98.607-83.974 98.607-83.974c-11.878-27.241-39.693-47.304-66.037-45.612z" fill-rule="evenodd" stroke="#1c2224" stroke-width="4.6063" fill="#a02c2c"/>
        <path id="path3691" d="m737.94 2590.9c-53.017 10.933-81.618 61.782-93.424 106.54 0 0 72.495 4.7442 112.59-18.492 40.096-23.236 63.474-46.026 63.474-46.026 3.7989-26.376-29.556-52.29-82.64-42.022z" fill-rule="evenodd" stroke="#1c2224" stroke-width="4.6063" fill="#93a7ac"/>
        <path id="path3693" d="m758.59 2590.7c-26.54 0.1505-52.808 11.268-71.094 30.5 25.127 27.206 72.406 27.878 98.356 1.599 6.3401-6.2194 11.422-13.934 14.394-22.443-12.477-7.4692-27.227-9.9498-41.656-9.6563z" fill="#80989e" fill-rule="evenodd"/>
        <path id="path3695" d="m672.83 2688c8.4285-39.923 25.872-62.21 56.539-88.497" stroke="#1c2224" stroke-dasharray="5.31496063, 21.25984252" stroke-width="5.315" fill="none"/>
        <path id="path3697" stroke-linejoin="round" d="m770.95 2601.7c0 3.1241-4.4116 5.6567-9.8536 5.6567s-9.8536-2.5326-9.8536-5.6567 4.4116-5.6567 9.8536-5.6567 9.8536 2.5326 9.8536 5.6567z" fill-rule="evenodd" transform="matrix(1.2879 0 0 1.4209 -222.56 -1098)" stroke="#1c2224" stroke-linecap="round" stroke-width="3.4051" fill="#627081"/>
        <path id="path3699" stroke-linejoin="round" d="m728.34 2382.1 29.177 211.57" stroke="#2b3538" stroke-linecap="round" stroke-miterlimit="3.9668" stroke-width="17.717" fill="none"/>
      </g>
      <g id="g3634" stroke="#000" stroke-width="7.5237" transform="matrix(.61224 0 0 .61224 202.13 1443.7)">
        <path id="path3636" stroke-linejoin="round" d="m1626 1600c0 39.764-32.236 72-72 72s-72-32.236-72-72 32.236-72 72-72 72 32.236 72 72z" fill-rule="evenodd" transform="translate(-12,-18)" stroke="#000" stroke-linecap="round" stroke-width="7.5237" fill="#93a7ac"/>
      </g>
      <path id="path3480" d="m1047.2 2243.4-7.5378 171.5s77.069-1.8703 150.76-30.54c113.74-44.253 156.66-174.29 143.22-171.5l-286.44 30.54z" fill-rule="evenodd" stroke="#1c2224" stroke-linecap="round" stroke-miterlimit="3.9668" stroke-width="4.7601" fill="#93a7ac"/>
      <g id="g6458" fill-rule="evenodd" stroke-width="0" fill="#849aa1" transform="matrix(.99022 0 0 1 9.3072 0)">
        <path id="path6449" d="m568.16 2194c0.00001 0-1.4696 29.351 4.125 66.344 55.812 48.771 148.49 70.417 252.75 77.719l-47.625-122.91-209.25-21.156z"/>
        <path id="path6451" d="m1334.2 2212.8c-0.1824-0.02-0.3838-0.012-0.5937 0.031l-286.44 30.531-4.25 96.5c112.5-3.7775 216.69-19.245 279.62-82.219 12.421-25.516 16.052-44.352 11.656-44.844z"/>
      </g>
      <path id="path3476" d="m760.81 2238.4s0.76854 160.49 118.74 184.93c64.973 30.439 155.83-0.5086 173.66-11.439 17.832-10.931 44.476-138.45-29.351-188.53-63.286-42.929-260.93 12.477-263.06 15.036z" fill-rule="evenodd" stroke="#1c2224" stroke-linecap="round" stroke-miterlimit="3.9668" stroke-width="4.6063" fill="#667f85"/>
      <path id="path3404" stroke-linejoin="round" d="m1199.8 2276.5c-12.545 42.816-21.462 97.391-81.015 125.52" stroke="#2c3437" stroke-dasharray="4.60629921, 18.42519685" stroke-width="4.6063" fill="none"/>
      <path id="path6462" d="m942.77 2213.2c-58.212 1.5682-115.85 12.961-171.79 28.5-3.3769 1.0103-8.0803 1.3769-5.9694 6.2802 1.7094 29.408 7.3826 58.582 17.97 86.064 78.539 9.2769 157.78 7.2628 236.69 6.5338 16.959-0.381 33.918-0.8762 50.855-1.8463 0.2352-36.992-9.767-76.633-38.016-102.03-23.893-22.326-58.994-23.317-89.739-23.5z" fill="#5e757b" fill-rule="evenodd"/>
      <path id="path2493" stroke-linejoin="round" d="m1383.7 2070c-11.689 245.93-245.21 241.11-465.04 241.11s-422.48-43.426-399.92-235.11c4.5604-38.748-5.9372-70.853 15.586-106.05 21.267-34.773 71.479-71.265 107.44-68.338 71.919 5.8534 170.32 17.31 280.23 17.31 109.92 0 223.67-13.71 309.95-21.691 43.138-3.9905 116.14 16.963 141.63 59.787 25.484 42.824 10.127 101.52 10.127 112.98z" fill-rule="evenodd" stroke="#1c2224" stroke-linecap="round" stroke-miterlimit="3.9668" stroke-width="4.2099" fill="#6f8a91"/>
      <path id="path3400" stroke-linejoin="round" d="m653.39 2279.1c12.545 42.816 17.334 98.238 76.887 126.36" stroke="#2c3437" stroke-dasharray="4.60629921, 18.42519685" stroke-width="4.6063" fill="none"/>
      <path id="path3419" d="m1127.3 2049.1c-59.773 12.504-126.74 19.011-194.48 16.612-105.36-3.7352-162.43-7.6458-200.53-14.345-9.6208 12.638-18.257 29.146-23.508 45.298-11.249 34.604-5.7568 66.161-8.1403 104.26-2.0758 33.178-0.50418 61.84 4.1224 86.546 63.435 14.532 137.62 19.676 213.87 19.676 75.351 0 152.3 0.5512 221.38-8.427 7.2109-28.19 11.662-62.327 12.706-103.68 0-11.267 8.023-68.987-5.2964-111.09-4.4436-14.048-11.647-25.695-20.116-34.846z" fill-rule="evenodd" stroke-miterlimit="3.9668" stroke-width="0" fill="#769096"/>
      <path id="path3306" stroke-linejoin="round" d="m1442 1922.8c0 79.89-244.61 160.64-498 153-253.39-7.6446-273.61-16.072-344.91-46.615-71.29-30.5-113.09-86.5-113.09-128.4 0-41.918 27.072-103.01 109.61-127.44 82.536-24.435 226.54-39.555 352.39-39.555 125.86 0 294.94 2.4522 378.39 23.555 104.54 26.435 115.61 85.555 115.61 165.44z" fill-rule="evenodd" stroke="#1c2224" stroke-linecap="round" stroke-miterlimit="3.9668" stroke-width="4.6063" fill="#6f8a91"/>
      <path id="path3409" d="m916.19 1783.2c-3.3872 0-6.7949 0.041-10.219 0.091-65.368 2.0641-136.38 16.299-178.47 38.239-45.61 23.774-60.563 83.197-60.562 123.98-0.00001 34.286 16.3 78.194 44.906 108.98 45.589 5.9725 113.16 9.6012 232.16 13.09 65.7 1.9264 130.81-1.9097 191.22-10.023 36.942-26.269 60-58.524 60-90.631 0-77.728-6.1392-135.25-63.906-160.97-32.59-14.51-88.774-19.921-143.5-21.868-24.83-0.6728-49.279-0.8808-71.625-0.8807z" fill="#769096" fill-rule="evenodd"/>
      <path id="path3336" d="m353.73 1283.3 137.71 245.72 140.41 108.01" stroke="#627081" stroke-linecap="round" stroke-miterlimit="3.9668" stroke-width="17.717" fill="none"/>
      <path id="path3412" d="m572.27 1704.2c-36.816 6.2231-44.185-21.701-46.901-42.96 6.7376-24.928 68.6-81.432 113.9-110.36 34.502-10.669 50.068 3.1367 60.695 20.494-54.59 31.748-98.319 74.809-127.7 132.82z" fill-rule="evenodd" stroke="#1c2224" stroke-linecap="round" stroke-miterlimit="3.9668" stroke-width="4.6063" fill="#93a7ac"/>
      <path id="path3338" stroke-linejoin="round" d="m1374.4 1626.2 167.41-59.405 62.105 321.33" stroke="#627081" stroke-linecap="round" stroke-miterlimit="3.9668" stroke-width="17.717" fill="none"/>
      <path id="path3410" d="m1285.6 1580.2c11.998-21.802 39.433-53.399 72.328-43.278 32.895 10.122 93.686 107.06 76.352 148.23-22.26 24.476-54.042 29.906-91.832 23.322-14.598-42.758-20.607-85.515-56.848-128.27z" fill-rule="evenodd" stroke="#1c2224" stroke-linecap="round" stroke-miterlimit="3.9668" stroke-width="4.6063" fill="#93a7ac"/>
      <path id="path2491" d="m548.22 1809.6c9.2742-75.082 29.891-144.08 75.21-197.54 35.784-33.141 94.975-55.453 139.55-92.426l314.43-32.621c22.436 14.027 38.603 30 91.52 41.683 53.185 14.004 105.56-1.1977 145.89 65.242s47.242 140.63 50.744 197.54c-135.84 124.18-317.23 126.69-469.38 125.05-152.15-1.6377-248.05-24.17-347.96-106.92z" fill-rule="evenodd" stroke="#1c2224" stroke-linecap="round" stroke-miterlimit="3.9668" stroke-width="4.6063" fill="#b7c4c8"/>
      <path id="path3403" d="m1028.6 1494.5-221.88 20.23c-28.324 49.73-64.258 81.526-86.375 127.71-24.681 65.632-38.05 147.33-45.25 236.84 62.502 22.76 132.21 30.736 221.09 31.68 95.972 1.0196 166.33 3.5091 260.13-16.331 1.291-85.344-11.183-245.66-127.72-400.13z" fill-rule="evenodd" stroke-miterlimit="3.9668" stroke-width="0" fill="#cdd6d9"/>
      <path id="path3429" d="m1060.7 1233.1c-38.309 34.821-106.37 73.114-178.71 72.562-52.606-0.4014-89.505-3.6189-110.42-18.938l14.743 60.562-2.3971 85.531c100.45 17.116 190.8-2.6878 262.73-30.969-7.0736-40.976-20.23-55.261 4.1639-119.88 4.9647-13.148 8.1303-29.818 9.8902-48.875z" fill="#d2dadd" fill-rule="evenodd"/>
      <path id="path3435" d="m894.59 805.78c-4.9 0.0186-9.9341 0.17955-15.062 0.5-0.12555 0.0126-0.24928 0.0183-0.375 0.0312-15.098 1.5525-31.425 5.3655-48.875 11.719-40.864 26.406-108.78 47.68-97.875 127.09l33.469 276.16 40.531 139.09-2.8438 129.06c74.186 14.04 143.83-5.2607 214.62-23.812 0.9667-87.231-25.156-85.421 0.5-172.16 26.37-89.151-10.231-336.24-22.156-405.66-8.2863-48.238-40.391-77.394-90.438-81.781-3.7661-0.17221-7.5849-0.26488-11.5-0.25z" fill="#e9edef" fill-rule="evenodd"/>
      <path id="path3441" d="m1025 1260.3c-38.499 24.925-89.6 45.72-143.03 45.312-37.032-0.2826-66.256-1.9685-87.625-8.2812l12.031 63.031-1.6562 75.438c78.07 9.5541 149.48-2.6111 210.19-22.562-5.7531-39.696-15.35-55.21 3.75-119.78 2.7859-9.4186 4.8601-20.608 6.3437-33.156z" fill="#dfe5e8" fill-rule="evenodd"/>
      <g id="g3457" stroke-dashoffset="53.15" stroke="#769096" stroke-miterlimit="1.5" stroke-dasharray="5.31496048, 31.88976288" stroke-width="5.315" fill="none">
        <g id="g3342">
          <g id="g3313">
            <path id="path3341" d="m575.71 1731.4c164.29 80.954 564.91 62.629 752.86-28.572"/>
            <path id="path3343" d="m670 1601.4c264.81 33.633 443.76 17.795 548.57-48.572"/>
            <path id="path3345" d="m1048.6 1535.7c96.377 160.92 96.005 251.15 95.714 341.43"/>
            <path id="path3347" d="m821.43 1541.4c-50.449 110.45-45.881 225.25-44.286 354.29"/>
            <path id="path3355" d="m844.86 811.85c41.267 6.3736 54.74 74.06 65.992 167.71"/>
            <path id="path3357" d="m879.76 808.55c101.48 17.832 88.197 116.88 97.459 161.99"/>
            <path id="path3359" d="m765.84 986.35c-7.2112-54.774-27.885-133.44 54.656-165.94"/>
          </g>
          <path id="path3333" d="m749.26 1066.3c96.081 16.307 204.54-1.0158 286.22-35.103"/>
        </g>
        <path id="path3455" d="m761.26 1388.3c96.081 16.307 197.54 7.9842 279.22-26.103"/>
      </g>
      <path id="path6471" d="m1200.3 1755.6c0 33.809-27.439 61.248-61.248 61.248s-61.248-27.439-61.248-61.248 27.439-61.248 61.248-61.248 61.248 27.439 61.248 61.248z" fill="#a5b6bb" fill-rule="evenodd"/>
      <g id="g3391" stroke="#3e3748" fill-rule="evenodd">
        <path id="path3266" stroke-linejoin="round" d="m1196.1 1753.6c0 31.464-25.536 57-57 57s-57-25.536-57-57 25.536-57 57-57 57 25.536 57 57z" stroke="#3e3748" stroke-linecap="round" stroke-miterlimit="3.9668" stroke-width="4.6063" fill="#d8aaab"/>
        <path id="path3542" d="m1177.8 1753.6c0 21.389-17.359 38.747-38.747 38.747-21.389 0-38.747-17.359-38.747-38.747 0-21.389 17.359-38.747 38.747-38.747 21.389 0 38.747 17.359 38.747 38.747z" fill="#dfbfc0"/>
        <path id="path3269" stroke-linejoin="round" d="m1148.5 1756.1c0 5.7404-4.8372 10.394-10.804 10.394-5.967 0-10.804-4.6535-10.804-10.394s4.8372-10.394 10.804-10.394c5.9671 0 10.804 4.6535 10.804 10.394z" transform="translate(1.3676 -2.4617)" stroke="#3e3748" stroke-linecap="round" stroke-miterlimit="3.9668" stroke-width="4.6063" fill="#c35154"/>
        <g id="g3547" stroke-linejoin="round" stroke="#3e3748" stroke-linecap="round" stroke-miterlimit="3.9668" stroke-width="3.5433" fill="#e9afaf">
          <path id="path3271" d="m1118.4 1735.7c0 3.701-3.0003 6.7013-6.7014 6.7013-3.701 0-6.7013-3.0003-6.7013-6.7013 0-3.7011 3.0003-6.7014 6.7013-6.7014 3.7011 0 6.7014 3.0003 6.7014 6.7014z" transform="translate(-3.1091 -1.8358)"/>
          <path id="path3273" d="m1118.4 1735.7c0 3.701-3.0003 6.7013-6.7014 6.7013-3.701 0-6.7013-3.0003-6.7013-6.7013 0-3.7011 3.0003-6.7014 6.7013-6.7014 3.7011 0 6.7014 3.0003 6.7014 6.7014z" transform="translate(45.632 -13.903)"/>
          <path id="path3275" d="m1118.4 1735.7c0 3.701-3.0003 6.7013-6.7014 6.7013-3.701 0-6.7013-3.0003-6.7013-6.7013 0-3.7011 3.0003-6.7014 6.7013-6.7014 3.7011 0 6.7014 3.0003 6.7014 6.7014z" transform="translate(10.194 50.618)"/>
          <path id="path3277" d="m1118.4 1735.7c0 3.701-3.0003 6.7013-6.7014 6.7013-3.701 0-6.7013-3.0003-6.7013-6.7013 0-3.7011 3.0003-6.7014 6.7013-6.7014 3.7011 0 6.7014 3.0003 6.7014 6.7014z" transform="translate(61.496 30.078)"/>
          <path id="path3279" d="m1109.1 1757.4c0 1.5107-1.2247 2.7353-2.7353 2.7353s-2.7353-1.2246-2.7353-2.7353c0-1.5106 1.2247-2.7352 2.7353-2.7352s2.7353 1.2246 2.7353 2.7352z" transform="translate(-.47894 3.6717)"/>
          <path id="path3281" d="m1109.1 1757.4c0 1.5107-1.2247 2.7353-2.7353 2.7353s-2.7353-1.2246-2.7353-2.7353c0-1.5106 1.2247-2.7352 2.7353-2.7352s2.7353 1.2246 2.7353 2.7352z" transform="translate(23.812 -37.195)"/>
          <path id="path3283" d="m1109.1 1757.4c0 1.5107-1.2247 2.7353-2.7353 2.7353s-2.7353-1.2246-2.7353-2.7353c0-1.5106 1.2247-2.7352 2.7353-2.7352s2.7353 1.2246 2.7353 2.7352z" transform="translate(48.814 32.503)"/>
          <path id="path3285" d="m1109.1 1757.4c0 1.5107-1.2247 2.7353-2.7353 2.7353s-2.7353-1.2246-2.7353-2.7353c0-1.5106 1.2247-2.7352 2.7353-2.7352s2.7353 1.2246 2.7353 2.7352z" transform="translate(66.073 -16.891)"/>
        </g>
      </g>
      <path id="path3567" d="m718.92 1773.1c0 37.667-23.541 68.236-52.546 68.236s-52.546-30.57-52.546-68.236 23.541-68.236 52.546-68.236 52.546 30.57 52.546 68.236z" fill="#92a6ad" fill-rule="evenodd"/>
      <path id="path3601" d="m789.2 1794.9c7.6927-7.708 13.424-19.202 15.335-32.607 1.2898-9.0472 0.65594-17.802-1.4777-25.547l24.759-61.864c0.57716 0.4684 1.1607 0.8918 1.7404 1.2478 7.6684 4.71 14.219 0.028 19.866-1.3791 5.6468-1.4074 11.595-3.0664 12.741-8.6689 1.1456-5.6027-3.4082-10.01-0.29553-15.86 3.1126-5.8503-2.2696-12.276-7.3883-17.338-5.1187-5.0623-14.531-5.5876-22.657-5.6807-8.126-0.093-16.133 1.2053-25.251-0.5911-9.1187-1.7964-16.038-12.425-21.016-18.487-4.9777-6.062-9.8389-7.4362-16.484-7.5526-6.6451-0.1163-13.446 2.267-18.093 6.4689-4.6475 4.2018-7.1845 8.2297-8.1764 14.186-0.99186 5.9558 2.4682 11.616 6.3375 16.451 2.6001 3.2487 6.6262 5.2488 10.869 6.2389-0.25272 0.022-0.50232 0.045-0.75525 0.066l-16.747 77.429c1.4096 0.02 2.8298 0.032 4.2359 0.066-6.2753 7.5465-10.872 17.791-12.544 29.52-3.5273 24.742 7.1818 47.307 24.299 52.867" fill="#b6c3c8" fill-rule="evenodd"/>
      <path id="path3571" d="m771.37 1783.5-98.215 41.9 1.3135 1.0179c-1.1942-0.1976-2.3822-0.3953-3.5135-0.6567l-17.929-4.8598c-0.71563-0.1233-1.447-0.1252-2.1672-0.033-3.6088 0.4508-6.3406 3.4893-6.4032 7.1256s2.5821 6.7479 6.1733 7.3226l12.281-0.4598-23.314 8.6689c-3.6535 1.7208-5.2345 6.0991-3.5135 9.7525 1.721 3.6537 6.0661 5.2018 9.7197 3.4808l20.654-14.12-17.403 17.863c-1.8347 1.9363-2.457 4.7173-1.6418 7.257 0.8152 2.5398 2.9306 4.4189 5.5494 4.9255 2.6188 0.5067 5.3235-0.4432 7.0271-2.4956l17.009-25.087c-1.2189 4.356-6.2791 18.579-3.1523 22.395 1.9201 1.8843 4.7211 2.573 7.2898 1.7732 2.5686-0.8 4.4803-2.9411 4.9912-5.5823l4.4001-18.06c0.21935-2.637 0.15387-4.8756-0.0985-6.7973l1.6418 1.2807 56.217-27.714" fill="#a7b7bd" fill-rule="evenodd"/>
      <path id="path3593" d="m817.33 1808.6 60.674-20.853c3.6222 0.1046 7.198 3.4646 8.9413 4.6975l14.402 11.71c0.60426 0.4027 1.2542 0.7008 1.95 0.9085 3.4818 1.0507 7.2238-0.6269 8.7551-3.9256 1.5314-3.299 0.39654-7.1954-2.6534-9.1765l-11.431-4.5492 24.868 1.5052c4.0375-0.092 7.2157-3.4174 7.1236-7.4549-0.0921-4.0376-3.4422-7.255-7.4798-7.1628l-24.577 4.5503 23.14-9.2474c2.4621-1.0261 4.1901-3.3442 4.4744-5.9963 0.28438-2.6522-0.90757-5.2271-3.0962-6.7517-2.1886-1.5248-5.057-1.7452-7.4463-0.5594l-25.732 16.002c2.88-3.4879 13.28-14.4 11.969-19.156-0.99143-2.5009-3.2631-4.2853-5.9355-4.5954-2.6725-0.3098-5.2853 0.9064-6.8231 3.1139l-11.344 14.72c-0.87518 1.6005-1.5516 3.0732-2.0744 4.4479l-51.3 9.9655" fill="#a5b6bb" fill-rule="evenodd"/>
      <path id="path6473" d="m841.25 1779.9c0 33.809-27.439 61.248-61.248 61.248s-61.248-27.439-61.248-61.248 27.439-61.248 61.248-61.248 61.248 27.439 61.248 61.248z" fill="#a5b6bb" fill-rule="evenodd"/>
      <rect id="rect3603" fill-rule="evenodd" height="16.653" width="11.354" y="1769.3" x="714.17" fill="#5b4c73"/>
      <path id="path3287" stroke-linejoin="round" d="m837 1778c0 31.464-25.536 57-57 57s-57-25.536-57-57 25.536-57 57-57 57 25.536 57 57z" fill-rule="evenodd" stroke="#1c2224" stroke-linecap="round" stroke-miterlimit="3.9668" stroke-width="4.6063" fill="#c83737"/>
      <path id="path3289" stroke-linejoin="round" d="m715.55 1776c0 31.767-15.926 57.549-35.549 57.549s-35.549-25.782-35.549-57.549 15.926-57.549 35.549-57.549 35.549 25.782 35.549 57.549z" fill-rule="evenodd" stroke="#1f282a" stroke-linecap="round" stroke-miterlimit="3.9668" stroke-width="4.1505" fill="#9d93ac"/>
      <g id="g3368" fill-rule="evenodd" stroke="#1c2224" stroke-linecap="round" stroke-miterlimit="3.9668" stroke-width="4.6063" fill="#b7c4c8">
        <path id="path3408" d="m650.05 1356.2c1.7669 0.039 3.5111-0.5381 5.2097-1.8021 7.7092-5.7366 8.4771-19.21 8.6155-40.902 4.8218-8.4277 37.548-11.919 43.998-14.196-1.2854-11.174-1.079-23.716-9.178-26.431-9.0466 4.8145-29.21 10.24-37.998 11.603-6.1886-24.769-17.957-48.02-27.338-41.04-10.871 8.0895-12.43 34.33-7.2198 66.796 4.396 27.394 14.369 45.76 23.91 45.971z" fill="#95a8ae"/>
        <path id="path3370" d="m690 1353.1c182.88 64.648 342.96 5.676 440-45.124-0.2081-41.563-13.912-98.76-24.823-112s-24.797-29.322-35.909-24.928c-38.858 35.904-112.65 77.503-191.27 76.928-78.616-0.5752-123.63-6.903-134.09-46.392-48.634 8.2113-57.94 91.778-53.907 151.52z" fill="#b7c4c8"/>
        <g id="g3363">
          <path id="path3391" d="m1168.1 1164.6c-3.4339-0.039-6.8237 0.5319-10.125 1.7812-14.983 5.6699-23.825 23.685-24.094 45.125-9.3711 8.3299-56.75 16.656-56.75 16.656-9.4592 10.742-0.1152 38.442 15.625 41.125 17.582-4.7586 33.171-16.497 50.25-17.844 12.027 24.482 33.424 38.087 51.656 31.188 21.128-7.9955 30.032-40.504 19.906-72.594-8.5436-27.076-27.926-45.229-46.469-45.437z" stroke="#1c2224" stroke-linecap="round" stroke-miterlimit="3.9668" stroke-width="4.6063" fill="#b7c4c8"/>
          <path id="path3395" d="m1228.1 1228.7c0 27.603-18.53 49.979-41.389 49.979-22.858 0-41.389-22.376-41.389-49.979s18.53-49.979 41.389-49.979c22.858 0 41.389 22.376 41.389 49.979z" transform="matrix(.612 -.38107 .38417 1.036 -11.564 400.98)" stroke="#1c2224" stroke-linecap="round" stroke-miterlimit="3.9668" stroke-width="5.2142" fill="#95a8ae"/>
          <path id="path3427" d="m1231.2 1228.7c0 27.603-19.899 49.979-44.446 49.979s-44.446-22.376-44.446-49.979 19.899-49.979 44.446-49.979 44.446 22.376 44.446 49.979z" fill="#789098" transform="matrix(.36912 -.42666 .38673 .94416 269.78 569.09)"/>
          <path id="path3397" d="m1228.1 1228.7c0 27.603-18.53 49.979-41.389 49.979-22.858 0-41.389-22.376-41.389-49.979s18.53-49.979 41.389-49.979c22.858 0 41.389 22.376 41.389 49.979z" transform="matrix(.19227 -.11972 .12069 .32547 814.42 964.6)" stroke="#1c2224" stroke-linecap="round" stroke-miterlimit="3.9668" stroke-width="16.597" fill="#b7c4c8"/>
        </g>
      </g>
      <path id="path3526" d="m661.72 1312.6c4.8218-8.4277 20.035-8.8004 26.485-11.077 0.6338-10.934 1.32-15.56 2.5772-22.832-9.2865 3.615-21.053 5.9218-30.081 8.4841-21.904-4.4875-19.539 32.585 1.0183 25.425z" fill-rule="evenodd" stroke-miterlimit="3.9668" stroke-width="0" fill="#b7c4c8"/>
      <path id="path3304" stroke-linejoin="round" d="m1626 1600c0 39.764-32.236 72-72 72s-72-32.236-72-72 32.236-72 72-72 72 32.236 72 72z" fill-rule="evenodd" transform="translate(-1064,-78)" stroke="#1c2224" stroke-linecap="round" stroke-miterlimit="3.9668" stroke-width="4.6063" fill="#b7c4c8"/>
      <path id="path3448" d="m812.08 1295c26.952 22.136 59.491 39.459 104.83 36.348 30.848 2.7813 50.78 16.685 64.114 33.171 10.344-3.3183 20.354-6.8655 30.045-10.497-1.4118-29.251-5.6595-55.433-15.319-80.016-7.7836-19.058-17.945-30.251-32.553-39.488-36.732 18.353-84.231 30.066-130.43 29.743-10.066 12.839-9.7589 12.915-20.685 30.739z" fill="#95a8ae" fill-rule="evenodd"/>
      <path id="path3453" d="m877.69 1255c-72.518-0.5181-108.77-12.873-128.7-37.423-15.465 6.1453-31.513 15.486-44.455 28.737-13.38 30.78-16.993 75.415-14.535 110.87 3.6512 1.258 8.2812-3.5118 11.914-2.3496 23.939-14.712 48.557 4.2595 80.186-9.5882 38.85-16.197 57.233-38.28 74.909-59.114" fill="#95a8ae" fill-rule="evenodd"/>
      <g id="g3356" transform="matrix(.99929 .037565 -.037565 .99929 37.068 -12.953)" stroke="#1c2224" stroke-linecap="round" stroke-miterlimit="3.9668" stroke-width="4.6063" fill="#dedbe3">
        <path id="path3311" d="m845.67 1222.8c-22.437-22.054-111.89-25.958-142.81 52.954-4.6733 12.727-15.998 31.193-18.662 53.508-2.6633 22.314 1.5765 44.04 5.7534 46.925 4.1769 2.8846 12.313-12.805 25.074-36.928s43.587-6.3882 72.12-19.218c30.667-13.132 45.162-31.041 59.115-47.932 21.275 18.178 46.973 32.405 82.76 29.851 59.469 5.5756 65.721 77.298 73.839 78.08 8.1101 0.7812 13.126 4.4397 8.4607-43.706-1.9911-20.547-13.382-63.724-20.083-81.465-19.102-48.656-78.855-50.771-88.378-53.4-20.679-3.1888-32.873-0.2785-45.714 8.5714l-11.473 12.76z" fill-rule="evenodd" stroke="#1c2224" stroke-linecap="round" stroke-miterlimit="3.9668" stroke-width="4.6063" fill="#dedbe3"/>
      </g>
      <g id="g3467" stroke-linejoin="round" fill-rule="evenodd" transform="translate(-4.896 -26.316)" stroke="#1f282a" stroke-linecap="round" stroke-miterlimit="3.9668" stroke-width="4.6063">
        <path id="path3440" stroke-linejoin="round" d="m656.81 1841.7c-3.4344 0.429-6.0382 3.3311-6.0977 6.7917-0.0596 3.4606 2.4432 6.4258 5.8608 6.9727l11.694-0.4367-22.205 8.2543c-3.477 1.6377-4.968 5.7841-3.3301 9.2611 1.6378 3.4771 5.7842 4.968 9.2612 3.3302l19.65-13.445-16.571 16.993c-1.746 1.8426-2.3489 4.5014-1.5731 6.9183 0.77581 2.4171 2.7988 4.2101 5.2911 4.6922 2.4923 0.4822 5.0573-0.4342 6.6786-2.3874l16.209-23.858c-1.16 4.1455-5.9901 17.669-3.0144 21.3 1.8273 1.7933 4.4895 2.449 6.934 1.6878 2.4445-0.7614 4.2716-2.8099 4.7578-5.3235l4.1824-17.178c1.5234-18.314-10.001-16.916-18.615-18.907l-17.051-4.6215c-0.68105-0.1172-1.3757-0.1321-2.0612-0.044z" stroke="#1f282a" stroke-linecap="round" stroke-miterlimit="3.9668" stroke-width="4.6063" fill="#e3d7f4"/>
        <path id="path3321" stroke-linejoin="round" d="m831.96 1768.1c0 27.503-18.282 49.798-40.834 49.798s-40.834-22.295-40.834-49.798 18.282-49.798 40.834-49.798 40.834 22.295 40.834 49.798z" transform="matrix(.81953 .13147 -.13137 .92148 365.75 27.844)" stroke="#1f282a" stroke-linecap="round" stroke-miterlimit="3.9668" stroke-width="5.241" fill="#beb7c8"/>
        <path id="path3325" stroke-linejoin="round" d="m778.84 1654.6c-5.8527-0.088-12.589-2.0558-16.271-6.6568-3.6823-4.6011-6.9772-9.9727-6.0333-15.641 0.94393-5.668 3.3704-9.5263 7.7934-13.525 4.4229-3.9988 10.882-6.2392 17.206-6.1285s10.978 1.4037 15.715 7.1727c4.7372 5.769 11.3 15.875 19.978 17.584 8.6781 1.7096 16.307 0.4881 24.041 0.5767 7.7333 0.089 16.673 0.5984 21.545 5.416 4.8714 4.8176 10.005 10.904 7.0426 16.471-2.9622 5.5677 1.3613 9.7777 0.27105 15.11-1.0902 5.3319-6.7423 6.9007-12.116 8.2401-5.3739 1.3394-11.616 5.8134-18.914 1.331-7.2979-4.4823-14.35-19.172-22.215-21.669-7.8649-2.4966-11.631 1.2075-16.722 3.651 0 0-0.49252 0.235-0.70269 0.3373s-0.69845 0.345-0.69845 0.345" stroke="#1f282a" stroke-linecap="round" stroke-miterlimit="3.9668" stroke-width="4.6063" fill="#dedbe3"/>
        <path id="path3329" stroke-linejoin="round" d="m756.26 1727.6 15.935-73.701c28.338-2.3072 55.231-12.31 73.037 9.9596l-31.871 79.677c-16.81-14.2-36.81-15.7-57.11-16z" stroke="#1f282a" stroke-linecap="round" stroke-miterlimit="3.9668" stroke-width="4.6063" fill="#dedbe3"/>
        <path id="path3335" d="m783.4 1771 1.6455 13.389-16.419-1.1839 2.735-11.972 12.038-0.2331z" fill="#1f282a"/>
        <path id="path3339" stroke-linejoin="round" d="m678 1846 94.164-40.164c12.593 4.3579 30.727-9.7583 48-21l48-21 3.84 16.2-52 32 13.404 22.196c-21.586 28.695-48.703 31.937-72.508 22.132l-11.388-22.716-53.5 26.4-18-14z" stroke="#1f282a" stroke-linecap="round" stroke-miterlimit="3.9668" stroke-width="4.6063" fill="#7c6f91"/>
        <path id="path3465" stroke-linejoin="round" d="m899.12 1790.8c3.452 0.2507 6.5729-2.0863 7.3079-5.4685s-1.1398-6.7794-4.3845-7.984l-11.554-1.858 23.39-3.7537c3.7301-0.9263 6.0029-4.7012 5.0765-8.4313-0.92641-3.7302-4.7013-6.003-8.4314-5.0766l-21.9 9.344 19.574-13.425c2.0726-1.4657 3.1836-3.9553 2.8953-6.4772-0.28828-2.5222-1.9217-4.6761-4.2716-5.6361-2.3499-0.9602-5.0446-0.563-7.0164 1.0356l-20.56 20.228c1.9481-3.8387 9.3289-16.157 7.1207-20.3-1.4415-2.116-3.924-3.2795-6.4702-3.0109-2.5462 0.2688-4.7385 1.9205-5.7068 4.2906l-7.4602 16.029c-5.0746 17.663 6.5012 18.545 14.559 22.181l15.819 7.866c0.64499 0.2481 1.3234 0.3985 2.0127 0.4464z" stroke="#1f282a" stroke-linecap="round" stroke-miterlimit="3.9668" stroke-width="4.6063" fill="#e3d7f4"/>
      </g>
      <path id="path3402" d="m1057.3 1446.2c-29.589 16.116-70.375 28.052-141.19 33.188-54.996 3.988-104.76 1.8484-139.06-4.7812-16.029 9.2502-17.922 24.955-17 34.125 2.5844 25.715 78.119 32.352 172.16 20.906 94.038-11.446 158.35-28.883 147.56-61.375-4.2885-12.918-12.535-17.435-22.469-22.062z" fill-rule="evenodd" stroke="#1c2224" stroke-linecap="round" stroke-miterlimit="3.9668" stroke-width="4.6063" fill="#93a7ac"/>
      <path id="path3416" d="m312.4 1328.8 56 110c35.122-27.82 69.935-54.408 98-54l-50-110c-40.873 5.5874-77.473 19.721-104 54z" fill-rule="evenodd" stroke="#1c2224" stroke-linecap="round" stroke-miterlimit="3.9668" stroke-width="4.6063" fill="#b7c4c8"/>
      <path id="path3418" d="m1508 1726 30 128c59.547 19.543 95.731 5.7104 118-28l-22-126c-24.997 16.329-58.22 35.378-126 26z" fill-rule="evenodd" stroke="#1c2224" stroke-linecap="round" stroke-miterlimit="3.9668" stroke-width="4.6063" fill="#93a7ac"/>
      <g id="g3376" fill-rule="evenodd" stroke="#1c2224" stroke-linecap="round" stroke-miterlimit="3.9668" stroke-width="4.6063">
        <path id="path3428" d="m1593 1942c0 6 22 60 22 60l49-13-29-71-42 24z" fill="#b7c4c8"/>
        <path id="path3430" d="m1615 2009 15 35 32-18 3-31-50 14z" fill="#b7c4c8"/>
        <path id="path3432" d="m1648 1917c4 0 44 27 44 27l43-21-53-47-34 41z" fill="#b7c4c8"/>
        <path id="path3434" d="m1695 1948 13 48 17-11 10-56-40 19z" fill="#b7c4c8"/>
        <path id="path3436" d="m1533.2 1934s-7 64 5 72 23 8 34 2c12.477-6.8058 5-70 5-70l-44-4z" fill="#b7c4c8"/>
        <path id="path3488" d="m1530.9 1939.1c-1.5892-24.403-3.4339-48.959 16.749-60.298 42.936 6.3397 75.414-3.008 100.5-23.449 24.579 7.3879 38.495 22.773 45.223 43.548-29.221 20.185-56.137 46.133-93.797 45.223l-68.672-5.0249z" fill="#93a7ac"/>
      </g>
      <g id="g3558" stroke="#1c2224" stroke-linecap="round" stroke-miterlimit="3.9668" transform="translate(-2,20)">
        <path id="path3414" d="m776.1 1164.3c46.929 5.7159 102.58 1.6601 133.99-3.98" stroke-width="4.6063" fill="none"/>
        <path id="path3366" d="m834 1161c0 14.912-9.402 27-21 27s-21-12.088-21-27 9.402-27 21-27 21 12.088 21 27z" fill-rule="evenodd" transform="matrix(.98954 -.14423 .14423 .98954 -153.63 132.06)" stroke-width="4.6063" fill="#fff"/>
        <path id="path3368" d="m834 1161c0 14.912-9.402 27-21 27s-21-12.088-21-27 9.402-27 21-27 21 12.088 21 27z" fill-rule="evenodd" transform="matrix(.98954 -.14423 .14423 .98954 -102.4 132.35)" stroke-width="4.6063" fill="#fff"/>
        <path id="path3482" d="m799.51 1115.2c0 3.409-2.4621 6.1725-5.4992 6.1725s-5.4992-2.7635-5.4992-6.1725 2.4621-6.1726 5.4992-6.1726 5.4992 2.7636 5.4992 6.1726z" fill-rule="evenodd" transform="matrix(1.3377 0 0 1.3554 -242.44 -345.4)" stroke-width="3.4209" fill="#0b280b"/>
        <path id="path3484" d="m799.51 1115.2c0 3.409-2.4621 6.1725-5.4992 6.1725s-5.4992-2.7635-5.4992-6.1725 2.4621-6.1726 5.4992-6.1726 5.4992 2.7636 5.4992 6.1726z" fill-rule="evenodd" transform="matrix(1.3377 0 0 1.3554 -192.61 -345.51)" stroke-width="3.4209" fill="#0b280b"/>
      </g>
      <path id="path2588" d="m323.79 893.9 13.72 255.19" stroke="#501616" stroke-width="7.0866" fill="none"/>
      <g id="g3385" fill-rule="evenodd" transform="translate(-16.8,-33.6)" stroke="#1c2224" stroke-linecap="round" stroke-miterlimit="3.9668" stroke-width="4.6063">
        <path id="path3426" d="m378.63 1225.6s21.88-24.015 35.222-8.5386c13.341 15.476 1.0673 75.246 1.0673 75.246l-82.984 38.424c-34.849-17.892-43.614-30.445-53.633-43.493-10.019-13.049-13.513-37.351 0.53366-38.69l99.794-22.947z" fill="#93a7ac"/>
        <path id="path3422" d="m320.3 1262.5c-18.549 2.1687-32.413-2.0607-44.004-17.108 0 0-8.8007-11.328 10.704-27.511 15.033-12.473 19.029-14.796 19.029-14.796s27.829 34.216 28.067 45.313c0.23786 11.097-13.796 14.103-13.796 14.103z" fill="#b7c4c8"/>
        <path id="path3424" d="m344.28 1258.4-16.277-66.707s16.367-22.684 34.955-17.611c13.592 3.7095 13.341 16.01 13.341 16.01 0.82364 21.892 4.8131 44.032-0.80049 62.705 0 0-3.544 19.282-18.411 18.945-9.0581-0.2056-12.541-13.875-12.808-13.342z" fill="#b7c4c8"/>
        <path id="path3420" d="m385.46 1198.7-53.366 27.75s9.5773 21.791 27.483 19.479c25.827-3.335 34.082-13.753 33.887-14.142 6.3941-1.2526 22.38-5.0995 20.284-12.719-3.0768-10.827-18.392-18.846-28.289-20.368z" fill="#b7c4c8"/>
      </g>
      <path id="path3528" d="m906.62 1261c0 23.338-18.919 42.258-42.258 42.258-23.338 0-42.258-18.919-42.258-42.258 0-23.338 18.919-42.258 42.258-42.258 23.338 0 42.258 18.919 42.258 42.258z" fill="#c9d3d7" transform="translate(-364.95 257.39)" fill-rule="evenodd"/>
      <g id="g3555" fill-rule="evenodd">
        <path id="path3302" stroke-linejoin="round" d="m1626 1600c0 39.764-32.236 72-72 72s-72-32.236-72-72 32.236-72 72-72 72 32.236 72 72z" transform="translate(-12,-18)" stroke="#1c2224" stroke-linecap="round" stroke-miterlimit="3.9668" stroke-width="4.6063" fill="#93a7ac"/>
        <path id="path3530" d="m906.62 1261c0 23.338-18.919 42.258-42.258 42.258-23.338 0-42.258-18.919-42.258-42.258 0-23.338 18.919-42.258 42.258-42.258 23.338 0 42.258 18.919 42.258 42.258z" fill="#aabbc2" transform="matrix(1.1855 0 0 1.1855 511.92 80.973)"/>
      </g>
      <g id="g6578" fill-rule="evenodd" fill="#f2f2f2">
        <path id="path6574" d="m787.62 1731.1c0 3.4755-3.1882 6.293-7.121 6.293s-7.121-2.8175-7.121-6.293c0-3.4756 3.1882-6.293 7.121-6.293s7.121 2.8174 7.121 6.293z" transform="matrix(.86047 0 0 1 92.346 -.33121)"/>
        <path id="path6576" d="m787.62 1731.1c0 3.4755-3.1882 6.293-7.121 6.293s-7.121-2.8175-7.121-6.293c0-3.4756 3.1882-6.293 7.121-6.293s7.121 2.8174 7.121 6.293z" transform="matrix(.86047 0 0 1 113.05 .33126)"/>
      </g>
      <path id="path3565" d="m745.65 1712.6c-12.335 16.066-10.659 12.997-16.954 17.287 28.301-1.3013 40.996-0.3804 63.163-21.608-7.7136-2.5919-29.113-5.4603-39.227-5.3191 0 0 5.3537-6.4255-6.9812 9.6406z" fill="#453748" fill-rule="evenodd"/>
      <g id="g3731" stroke="#788d8c" stroke-width="1.7717" stroke-linecap="round" fill="none">
        <path id="path3701" stroke-linejoin="round" d="m687.59 1326.7c22.383-58.559 80.389-88.565 138.17-63.646"/>
        <path id="path3703" stroke-linejoin="round" d="m691.4 1339.2c39.103-51.242 91.152-64.308 131.1-65.822"/>
        <path id="path3715" stroke-linejoin="round" d="m846.98 1264.1c81.75-39.571 117.56 24.856 134.91 61.47"/>
        <path id="path3717" stroke-linejoin="round" d="m846.98 1272.8c60.986-7.7799 108.35 37.092 126.75 70.717"/>
        <path id="path3725" d="m723.35 1325.3c20.526 9.0635 75.868-19.138 92.079-44.596"/>
      </g>
      <path id="path2572" d="m609.56 2769.1c22.015-12.012 50.323-29.374 60.047-51.356" stroke="#803300" stroke-dasharray="5.31496048, 21.25984192" stroke-width="5.315" fill="none"/>
      <path id="path3344" d="m1217.9 2734.7c7.188 20.427 24.326 38.558 60.897 52.205" stroke="#661a1a" stroke-dasharray="5.31496048, 21.25984192" stroke-width="5.315" fill="none"/>
      <g id="g3387" transform="translate(34.602 -15.97)">
        <path id="path3490" d="m289.32-212.01c-384.37 48.44-306.65 331.55-174.44 599.95 125.6 264.35 99.22 200.39 136.1 288.47l70.059-0.415c48.91-106.55 82.27-161.74 138.48-275.02 50.1-100.98 61.65-155.2 88.05-286.65 0.004-0.0159 0.01-0.0314 0.0156-0.0469 0.006-0.0155 0.012-0.031 0.0156-0.0469 18.868-207.33-108.56-327.88-258.28-326.25z" fill-rule="evenodd" stroke="#1c2224" stroke-linecap="round" stroke-miterlimit="3.9668" stroke-width="4.6063" fill="#aade87"/>
        <g id="g3358" stroke-linejoin="round" stroke="#0b2300" stroke-linecap="round" stroke-width="3.5433" fill="none">
          <path id="path3532" d="m119.09 362.11 138.58 501.63m187.96-493.95-128.63 496.4m-132.6-519.45c33.067 173.81 82.271 355.07 89.832 516.05m86.88-516.05-59.7 515m-40.18-530.36 25.85 530.9"/>
          <path id="path3348" d="m126.22 364.55c0 3.4442-2.4571 6.2364-5.488 6.2364s-5.488-2.7921-5.488-6.2364c0-3.4442 2.4571-6.2364 5.488-6.2364s5.488 2.7921 5.488 6.2364z" transform="matrix(1.3347 0 0 1.1345 -42.153 -50.783)"/>
          <path id="path3350" d="m126.22 364.55c0 3.4442-2.4571 6.2364-5.488 6.2364s-5.488-2.7921-5.488-6.2364c0-3.4442 2.4571-6.2364 5.488-6.2364s5.488 2.7921 5.488 6.2364z" transform="matrix(1.3347 0 0 1.1345 22.456 -66.748)"/>
          <path id="path3352" d="m126.22 364.55c0 3.4442-2.4571 6.2364-5.488 6.2364s-5.488-2.7921-5.488-6.2364c0-3.4442 2.4571-6.2364 5.488-6.2364s5.488 2.7921 5.488 6.2364z" transform="matrix(1.3347 0 0 1.1345 100.29 -82.214)"/>
          <path id="path3354" d="m126.22 364.55c0 3.4442-2.4571 6.2364-5.488 6.2364s-5.488-2.7921-5.488-6.2364c0-3.4442 2.4571-6.2364 5.488-6.2364s5.488 2.7921 5.488 6.2364z" transform="matrix(1.3347 0 0 1.1345 199.57 -67.246)"/>
          <path id="path3356" d="m126.22 364.55c0 3.4442-2.4571 6.2364-5.488 6.2364s-5.488-2.7921-5.488-6.2364c0-3.4442 2.4571-6.2364 5.488-6.2364s5.488 2.7921 5.488 6.2364z" transform="matrix(1.3347 0 0 1.1345 284.38 -43.299)"/>
        </g>
        <path id="path3331" d="m239.98 851.87 15.68 80.36c27.446-8.5123 52.26-9.1277 74.48-1.96l9.8-72.52c-27.842-12.916-56.72-23.761-99.96-5.88z" fill-rule="evenodd" stroke="#1c2224" stroke-linecap="round" stroke-miterlimit="3.9668" stroke-width="4.6063" fill="#8a6f91"/>
        <path id="path3385" d="m521.7 15.167c0 118.28-107.92 286.13-240.88 286.13-132.97 0-240.88-167.86-240.88-286.13 0-118.28 107.92-214.27 240.88-214.27 132.97 0 240.88 95.992 240.88 214.27z" fill-rule="evenodd" stroke-miterlimit="3.9668" stroke-width="0" fill="#b4e694"/>
        <path id="path3372" d="m455.9 31.137c0 91.094-73.09 212.91-170.06 228.91-117.69 19.41-186.03-137.82-186.03-228.91 0-91.094 79.764-165.03 178.05-165.03 98.281 0 178.05 73.932 178.05 165.03z" fill-rule="evenodd" stroke-miterlimit="3.9668" stroke-width="0" fill="#c3eba9"/>
      </g>
      <g id="g3419" stroke-linejoin="round" fill-rule="evenodd" transform="matrix(.58259 -.014703 .014703 .58259 333.32 570.34)" stroke="#1c2224" stroke-linecap="round" fill="#a02c2c">
        <path id="path3406" d="m856.62 1354.7c0 7.8087-6.221 14.139-13.895 14.139-7.6741 0-13.895-6.3302-13.895-14.139 0-7.8087 6.221-14.139 13.895-14.139 7.6741 0 13.895 6.3302 13.895 14.139z" stroke-width="4.6063" transform="matrix(.87020 0 0 .87020 107.1 168.21)"/>
        <path id="path3411" d="m856.62 1354.7c0 7.8087-6.221 14.139-13.895 14.139-7.6741 0-13.895-6.3302-13.895-14.139 0-7.8087 6.221-14.139 13.895-14.139 7.6741 0 13.895 6.3302 13.895 14.139z" stroke-width="6.6889" transform="matrix(.68865 0 0 .68865 221.32 414.57)"/>
        <path id="path3413" d="m856.62 1354.7c0 7.8087-6.221 14.139-13.895 14.139-7.6741 0-13.895-6.3302-13.895-14.139 0-7.8087 6.221-14.139 13.895-14.139 7.6741 0 13.895 6.3302 13.895 14.139z" stroke-width="6.6889" transform="matrix(.68865 0 0 .68865 342.96 413.05)"/>
        <path id="path3415" d="m856.62 1354.7c0 7.8087-6.221 14.139-13.895 14.139-7.6741 0-13.895-6.3302-13.895-14.139 0-7.8087 6.221-14.139 13.895-14.139 7.6741 0 13.895 6.3302 13.895 14.139z" stroke-width="6.6889" transform="matrix(.68865 0 0 .68865 188.46 413.73)"/>
        <path id="path3417" d="m856.62 1354.7c0 7.8087-6.221 14.139-13.895 14.139-7.6741 0-13.895-6.3302-13.895-14.139 0-7.8087 6.221-14.139 13.895-14.139 7.6741 0 13.895 6.3302 13.895 14.139z" stroke-width="5.1442" transform="matrix(.91207 0 0 .87910 117.68 154.38)"/>
      </g>
      <path id="path6469" d="m789.16 1978.1c120.91 18.899 231.64 13.599 330.92 0 8.31 0 15 6.69 15 15v216.68c0 8.31-6.8677 13.354-15 15-103.77 20.999-209.54 34.034-330.92 0-7.9819-2.238-15-6.69-15-15v-216.68c0-8.31 6.69-15 15-15z" fill="#647d83" fill-rule="evenodd"/>
      <g id="g8408" fill-rule="evenodd">
        <path id="path8366" d="m520 2030c-0.0919 14.659 0.63524 29.748-1.2812 46.031-0.19756 1.6785-0.39934 3.3441-0.5625 5 37.822 23.669 86.868 41.436 142.06 54.969 90.561 22.204 199.11 32.326 306.97 31.187 107.86-1.1389 214.88-13.54 302.47-37.625 42.75-11.755 81.361-26.139 112.97-44.062 0.4525-5.0472 0.8118-10.193 1.0625-15.469 0-5.233 3.1653-20.327 4.2187-39.25-28.588 23.73-74.274 44.959-131.81 60.781-81.711 22.469-185.24 34.681-289.47 35.781-104.23 1.1004-209.31-8.8995-294.22-29.719-67.23-16.5-120.82-40.2-152.41-67.6z"/>
        <path id="path8401" d="m1387.9 2030.8c-11.571 9.6045-25.956 18.814-42.781 27.406l-11.281 50.25c17.592-6.9379 33.97-14.539 48.781-22.937 0.4525-5.0472 0.8118-10.193 1.0625-15.469 0-5.233 3.1653-20.327 4.2187-39.25z" fill="#a80"/>
        <path id="path8399" d="m576.72 2065.1-32.375 30.5c30.661 15.296 66.602 27.696 105.91 37.844l34.875-32.844c-4.2807-0.9736-8.5335-1.9739-12.719-3-36.317-8.9044-68.646-19.926-95.688-32.5z" fill="#a80"/>
        <path id="path8397" d="m1270.2 2087.4c-4.6251 1.3912-9.3012 2.7759-14.094 4.0937-31.231 8.5878-65.667 15.675-102.09 21.219l-15.781 42.656c40.372-5.3369 79.018-12.503 114.78-21.5l17.188-46.469z" fill="#a80"/>
        <path id="path8403" d="m706.34 2105.1c-3.4095 13.448-4.5556 26.542-4.9062 39.875 81.374 15.903 173.81 23.127 265.75 22.156 64.212-0.678 128.12-5.3443 187.81-14.094 0.2678-12.502 0.011-26.433-1.625-40.219-58.707 8.8998-122.59 13.791-186.75 14.469-90.74 0.958-182.12-6.5037-260.28-22.188z" stroke-width="0" stroke-miterlimit="3.9668" fill="#1a1a1a"/>
        <path id="path8395" d="m758.09 2114.1-27.938 36.125c37.176 6.1652 76.255 10.658 116.25 13.469l29.531-38.187c-40.527-2.1007-80.231-5.9073-117.84-11.406z" fill="#a80"/>
        <path id="rect8378" d="m1076.8 2121.9c-36.007 3.1752-73.048 4.9829-110.19 5.375-3.1842 0.034-6.3773 0.05-9.5625 0.062l-23.625 39.781c11.243 0.1272 22.5 0.1188 33.75 0 28.413-0.3 56.763-1.3793 84.719-3.25l24.906-41.969z" fill="#d4aa00"/>
      </g>
      <g id="g6440" stroke-linejoin="round" transform="translate(15.561 16.218)">
        <g id="g6410" stroke="#1c2224" stroke-width="4.6063" stroke-linecap="round" fill-rule="evenodd">
          <path id="rect3362" d="m771.6 1953.9c120.91 18.899 231.64 13.599 330.92 0 8.31 0 15 6.69 15 15v216.68c0 8.31-6.8677 13.354-15 15-103.77 20.999-209.54 34.034-330.92 0-7.9819-2.238-15-6.69-15-15v-216.68c0-8.31 6.69-15 15-15z" fill="#9cafb4"/>
          <path id="path6408" d="m789.02 1971.3c108.18 16.444 207.26 11.832 296.09 0 7.4355 0 13.421 5.8209 13.421 13.052v188.54c0 7.2305-6.145 11.62-13.421 13.052-92.854 18.271-187.49 29.613-296.09 0-7.1419-1.9473-13.421-5.821-13.421-13.052v-188.54c0-7.2306 5.986-13.052 13.421-13.052z" fill="#4d5f64"/>
        </g>
        <path id="rect6414" d="m838.19 2122.4-60.938 52.656-0.78125 2.125c1.9497 4.5436 6.9906 7.2308 12.562 8.75 108.61 29.613 203.24 18.271 296.09 0 5.6103-1.104 10.533-3.9643 12.5-8.5313l-0.375-1.2812-0.375-1.0625-65.469-52.656h-193.22z" fill-rule="evenodd" stroke="#1c2224" stroke-linecap="round" stroke-width="4.6063" fill="#5a6f75"/>
        <g id="g6427" stroke="#1d2325" stroke-width="3.5899" transform="matrix(1.2487 0 0 1.3185 -229.68 -632.27)" fill="none">
          <path id="path6417" d="m855.69 2088v-107.47"/>
          <path id="path6419" d="m1009.7 2088.2v-107.47"/>
        </g>
      </g>
      <path id="path6507" d="m1078.9 1501.4c5.0761 6.7154 19.186 12.306 33.602 17.11l27.157 34.671c-0.4564 0.2873-0.8504 0.6538-1.1044 1.1551-1.9174 3.7825 3.8373 26.071 13.453 32.982l-39.92 12.623 18.209 10.106 35.768-16.057c11.275 4.7653 24.782 8.7698 32.246 11.16 7.4641 2.3902 4.0571 1.2279 5.7563 1.6599 6.149 3.8909 13.3 8.9746 19.347 14.794 13.873 13.353 33.056 32.646 33.056 32.646l13.066 0.9967-52.395-49.216c-0.5228-2.9515-2.6046-14.38-5.7075-24.3-0.4218-1.3485-1.0815-2.5801-1.9203-3.7258l19.795-21.204c1.0049 0.3742 1.5167 0.5645 2.5997 0.9675 25.399 9.4534 29.543 3.9557 29.543 3.9557l-59.389-23.084 0.5716 4.8822-7.413 25.164c-6.6965-2.6734-14.262-4.7571-20.389-7.2039-6.9666-2.7821-13.874-4.8924-18.911-6.29l-24.388-37.113-52.632-16.682zm100.29 102.46c-11.141-2.1077-15.987 0.9567-10.826 6.8339 5.1605 5.8772 18.374 12.342 29.515 14.45 11.141 2.1077 16.004-0.9378 10.843-6.8147-5.1604-5.8772-18.391-12.361-29.532-14.469z" fill="#b1bfc3" fill-rule="evenodd"/>
      <g id="g6489" fill="#caf" fill-rule="evenodd">
        <g id="g3435" stroke="#1c2224" stroke-width="4.6063">
          <path id="path2736" stroke-miterlimit="3.9834" d="m1160.3 1438.7-42.656 53.625c-0.6882-0.3628-1.0391-0.5469-1.7813-0.9375-17.4-9.1582-26.531 3.2188-26.531 3.2188l39.812 23.344 3.7813-9.4063 34.656-60.375-7.2812-9.4687z"/>
          <path id="path3374" stroke-linecap="round" stroke-miterlimit="3.9834" d="m1205.9 1461.5-14.594 3.6562-8.75 67.031 38.656 13.25c0.8351-11.339-8.5284-17.094-18.906-21.187l3.5937-62.75z"/>
          <path id="path3376" stroke-linecap="round" stroke-miterlimit="3.9668" d="m1215 1395.7 71.02-31.19 9.4752 13.12-76.122 29.003-4.3732-10.933z"/>
          <path id="path3380" stroke-linecap="round" stroke-miterlimit="3.9668" d="m1146.7 1321.3 27.475 70.717 21.137 2.9155c-17.748-26.956-21.507-41.619-36.222-76.548l-12.391 2.9155z"/>
          <path id="path3378" stroke-linecap="round" stroke-miterlimit="3.9668" d="m1177.3 1462.8c-8.7156-5.4604-25.689-5.1327-19.13-26.27 6.5597-21.137 16.764-48.105 16.764-48.105s5.1021-7.2886 17.493-2.9155c12.391 4.3732 19.428 5.5365 30.341 16.398 6.2591 6.2295-9.27 52.771-14.93 61.442-5.071 7.7683-10.989 5.8001-10.989 5.8001s-10.834-0.8895-19.549-6.35z"/>
          <path id="path3382" d="m1232.5 1350.5c0 9.661-7.6686 17.493-17.128 17.493-9.4597 0-17.128-7.8317-17.128-17.493 0-9.661 7.6686-17.493 17.128-17.493 9.4597 0 17.128 7.8317 17.128 17.493z" stroke-linecap="round" stroke-miterlimit="3.9668" transform="translate(-4.6401 12.91)"/>
        </g>
        <g id="g6483">
          <path id="path6475" d="m1150.6 1454.7 14.347-18.439 3.9098 11.93-11.99 11.99-6.2667-5.481z"/>
          <path id="path6477" d="m1192.5 1476.2 0.242-14.764 10.892-3.8727-0.7262 14.038-10.408 4.5988z"/>
          <path id="path6479" d="m1176.5 1395.8c-1.9363-9.6816-3.1933-14.632-3.1933-14.632l8.8385-3.279 7.5187 12.18-13.164 5.7307z"/>
          <path id="path6481" d="m1211.8 1399.2 12.852-5.0201 2.8107 6.3712-9.549 7.1359-6.1135-8.487z"/>
        </g>
      </g>
      <path id="path6582" d="m786.27 1731.6c0 1.0131-0.92395 1.8344-2.0637 1.8344s-2.0637-0.8213-2.0637-1.8344 0.92395-1.8344 2.0637-1.8344c1.1397 0 2.0637 0.8213 2.0637 1.8344z" fill="#453748" transform="translate(-2.293 -2.5223)" fill-rule="evenodd"/>
      <path id="path6584" d="m786.27 1731.6c0 1.0131-0.92395 1.8344-2.0637 1.8344s-2.0637-0.8213-2.0637-1.8344 0.92395-1.8344 2.0637-1.8344c1.1397 0 2.0637 0.8213 2.0637 1.8344z" fill="#453748" transform="translate(-17.427 .45854)" fill-rule="evenodd"/>
      <path id="path6612" d="m1108.3 1706.7c-22.947 14.071-31.612 46.492-18.808 70.194 2.011 3.9565-1.5549-3.6183-1.8031-5.4284-8.6726-26.197 6.3371-57.194 32.334-66.617 22.56-9.153 50.592-0.7291 64.24 19.51-13.718-24.126-46.82-33.557-71.166-20.428-1.6473 0.832-3.2512 1.7612-4.7967 2.7694z" fill="#e5cacb" fill-rule="evenodd"/>
      <path id="path6619" d="m457.51 1468.7c-22.947 14.071-31.612 46.492-18.808 70.194 2.011 3.9565-1.5549-3.6183-1.8031-5.4284-8.6726-26.197 6.3371-57.194 32.334-66.617 22.56-9.153 50.592-0.7291 64.24 19.51-13.718-24.126-46.82-33.557-71.166-20.428-1.6473 0.832-3.2512 1.7612-4.7967 2.7694z" fill="#c9d3d7" fill-rule="evenodd"/>
      <g id="g8345" transform="translate(-2.3949 -1.4968)">
        <path id="path2414" d="m1182.3 1381.9c0.5734-2.3613 3.4418-3.6779 6.4315-2.952 10.641 3.5397 22.339 6.4846 35.484 8.6159 2.9897 0.726 4.935 3.2114 4.3616 5.5728-0.5734 2.3613-1.638 4.7087-4.6278 3.9828-12.473 2.8141-27.247-5.8729-37.288-9.6467-2.9897-0.726-4.935-3.2114-4.3616-5.5728z" stroke="#1c2224" stroke-width="2.4803" fill="#ccc"/>
        <path id="path2416" d="m1221.6 1333.3s9.7656 3.9175 8.5784-7.5637 2.6236-13.103 2.6236-13.103-9.405 2.7906-10.341 11.901c-2.7116-6.8511-2.7568-19.171 6.7135-25.107-13.996 6.4408-14.823 7.2581-17.233 20.951-2.4043-7.2949-1.848-13.04 1.4088-15.333-15.317 7.4907-12.913 16.961-10.171 29.048 11.485-3.4591 17.608-0.3679 18.42-0.7932z" fill="#d45500" fill-rule="evenodd"/>
        <path id="path2418" d="m1236.6 1381.8c-13.622 20.742-50.718-2.7176-50.718-2.7176-11.408-68.05 80.775-51.308 50.718 2.7176z" fill-rule="evenodd" stroke="#1c2224" stroke-width="2.4803" fill="#ffb380"/>
        <path id="path2420" d="m357.14 283.08c0 36.687-26.543 66.429-59.286 66.429s-59.286-29.741-59.286-66.429c0-36.687 26.543-66.429 59.286-66.429s59.286 29.741 59.286 66.429z" transform="matrix(.15660 .033855 -.027956 .12931 1177.9 1303.8)" stroke="#1c2224" stroke-width="17.036" fill="#fff"/>
        <path id="path2422" d="m161.43 238.79c0 14.596-9.9137 26.429-22.143 26.429s-22.143-11.832-22.143-26.429c0-14.596 9.9137-26.429 22.143-26.429s22.143 11.832 22.143 26.429z" transform="matrix(.23127 .049998 -.049998 .23127 1158 1286.8)" stroke="#1c2224" stroke-width="7.4875" fill="#f2f2f2"/>
        <rect id="rect2424" rx="4.9216" transform="rotate(19.024)" height="23.662" width="7.7745" stroke="#1c2224" y="879.42" x="1555" stroke-width="1.7717" fill="#f9f9f9"/>
        <path id="path2426" d="m1192 1339.8c1.2393 0.4273 1.8014 2.0345 1.2604 3.6035-2.439 5.5358-4.6119 11.67-6.4211 18.622-0.541 1.569-1.9742 2.4881-3.2134 2.0608-1.2393-0.4273-1.8014-2.0345-1.2604-3.6035 1.9376-7.7887 4.1408-13.506 6.4211-18.622 0.541-1.569 1.9742-2.4882 3.2134-2.0609z" stroke="#1c2224" stroke-width="1.7717" fill="#ccc"/>
        <path id="path2428" d="m161.43 238.79c0 14.596-9.9137 26.429-22.143 26.429s-22.143-11.832-22.143-26.429c0-14.596 9.9137-26.429 22.143-26.429s22.143 11.832 22.143 26.429z" transform="matrix(.23127 .049998 -.049998 .23127 1232.2 1305.8)" stroke="#1c2224" stroke-width="7.4875" fill="#ececec"/>
        <rect id="rect2430" rx="4.9216" transform="matrix(-.99312 -.11712 -.11712 .99312 0 0)" height="23.662" width="7.7745" stroke="#1c2224" y="1200.4" x="-1402.8" stroke-width="1.7717" fill="#f9f9f9"/>
        <path id="path2432" d="m1244.1 1354.1c-1.3019-0.1536-2.5064 1.0497-2.7008 2.698-0.015 6.6527-1.0255 13.131-2.3071 19.562-0.1944 1.6482 0.6972 3.0988 1.999 3.2523s2.5064-1.0498 2.7007-2.698c1.0745-6.3859 2.1017-12.793 2.3071-19.563 0.1944-1.6482-0.6971-3.0987-1.9989-3.2522z" stroke="#1c2224" stroke-width="1.7717" fill="#e6e6e6"/>
        <path id="path2434" d="m304.29 237.36c0 6.7063-5.1168 12.143-11.429 12.143-6.3118 0-11.429-5.4365-11.429-12.143 0-6.7063 5.1167-12.143 11.429-12.143 6.3118 0 11.429 5.4365 11.429 12.143z" fill="#483737" transform="matrix(.23127 .049998 -.049998 .23127 1160.8 1280.4)"/>
        <path id="path2436" opacity=".14463" d="m304.29 237.36c0 6.7063-5.1168 12.143-11.429 12.143-6.3118 0-11.429-5.4365-11.429-12.143 0-6.7063 5.1167-12.143 11.429-12.143 6.3118 0 11.429 5.4365 11.429 12.143z" fill="#f9f9f9" transform="matrix(.14398 .031127 -.031127 .14398 1181.8 1306.8)"/>
        <path id="path2438" d="m1225.7 1377.8c-11.669 3.057-17.557-9.5667-28.069-24.545 0 0 10.512 14.978 0 0 10.512 14.978 21.951 15.513 33.619 12.456-1.8384 4.3431-0.3237 9.1111-5.5504 12.09z" fill-rule="evenodd" stroke="#1c2224" stroke-width="1.7717" fill="#800000"/>
        <path id="path2440" d="m1212 1368.9c-0.8369-0.1589-1.7036-0.1672-2.5336 0 3.0244 3.8062 6.6731 7.8793 11.763 8.5043 2.1931-1.5828 1.4018-5.2402-1.0616-6.0772-1.2695-0.6312-2.6619-0.2144-3.9066 0.154-1.0695-1.3061-2.5377-2.3226-4.2616-2.5781z" fill="#d45500"/>
        <path id="path2442" d="m2919-614.64c0 1.7374-1.6859 3.1457-3.7655 3.1457s-3.7655-1.4084-3.7655-3.1457 1.6859-3.1457 3.7655-3.1457 3.7655 1.4084 3.7655 3.1457z" fill="#fff" transform="matrix(.19667 .042518 -.048167 .22280 613.69 1362.6)"/>
        <path id="path2444" stroke-linejoin="round" d="m1193.7 1336.5s14.65-20.298 35.536-8.6746c13.758 7.6564 14.366 22.722 14.366 22.722" stroke="#1c2224" stroke-linecap="round" stroke-width="2.4803" fill="none"/>
        <path id="path2446" stroke-linejoin="round" d="m1221.7 1322.4c-6.4408-1.2491-12.164 0.1044-16.71 2.3034-1.1432 0.5529-1.6217 1.9279-1.0687 3.0711 0.5529 1.1431 1.9279 1.6216 3.0711 1.0686 3.8694-1.8719 8.4888-2.9707 13.831-1.9347 2.4163 0.4686 4.9943 1.387 7.7371 2.9134 2.1022 1.1699 3.8542 2.5179 5.3322 3.9594 0.9094 0.8859 2.3648 0.867 3.2508-0.042 0.886-0.9094 0.867-2.3648-0.042-3.2508-1.755-1.7116-3.8445-3.3131-6.3101-4.6852-3.1315-1.7427-6.1734-2.837-9.0913-3.4028z" fill-rule="evenodd" stroke="#1c2224" stroke-linecap="round" stroke-width="2.4803" fill="#e5cacb"/>
      </g>
    </g>
  </g>
  <metadata>
    <rdf:RDF>
      <cc:Work>
        <dc:format>image/svg+xml</dc:format>
        <dc:type rdf:resource="http://purl.org/dc/dcmitype/StillImage"/>
        <cc:license rdf:resource="http://creativecommons.org/licenses/publicdomain/"/>
        <dc:publisher>
          <cc:Agent rdf:about="http://openclipart.org/">
            <dc:title>Openclipart</dc:title>
          </cc:Agent>
        </dc:publisher>
        <dc:title>roboter</dc:title>
        <dc:date>2011-12-20T09:59:10</dc:date>
        <dc:description>balloongreen, brustwarze, clip art, clipart, future, koch, luftballon, robot, roboter, zukunft, </dc:description>
        <dc:source>http://openclipart.org/detail/166359/roboter-by-bastiyxc</dc:source>
        <dc:creator>
          <cc:Agent>
            <dc:title>bastiyxc</dc:title>
          </cc:Agent>
        </dc:creator>
        <dc:subject>
          <rdf:Bag>
            <rdf:li>balloongreen</rdf:li>
            <rdf:li>brustwarze</rdf:li>
            <rdf:li>clip art</rdf:li>
            <rdf:li>clipart</rdf:li>
            <rdf:li>future</rdf:li>
            <rdf:li>koch</rdf:li>
            <rdf:li>luftballon</rdf:li>
            <rdf:li>robot</rdf:li>
            <rdf:li>roboter</rdf:li>
            <rdf:li>zukunft</rdf:li>
          </rdf:Bag>
        </dc:subject>
      </cc:Work>
      <cc:License rdf:about="http://creativecommons.org/licenses/publicdomain/">
        <cc:permits rdf:resource="http://creativecommons.org/ns#Reproduction"/>
        <cc:permits rdf:resource="http://creativecommons.org/ns#Distribution"/>
        <cc:permits rdf:resource="http://creativecommons.org/ns#DerivativeWorks"/>
      </cc:License>
    </rdf:RDF>
  </metadata>
</svg>