<?xml version="1.0" encoding="UTF-8"?>
<svg xmlns:rdf="http://www.w3.org/1999/02/22-rdf-syntax-ns#" xmlns="http://www.w3.org/2000/svg" xmlns:cc="http://creativecommons.org/ns#" xmlns:dc="http://purl.org/dc/elements/1.1/" xmlns:svg="http://www.w3.org/2000/svg" id="svg2" viewBox="0 0 246.02 246.05" version="1.0">
  <g id="layer1" transform="translate(-2.475 -2.087)">
    <rect id="rect2389" transform="matrix(.69381 -.72016 .72006 .69391 0 0)" fill-opacity=".8995" ry="10.906" height="180.37" width="180.37" y="86.985" x="-93.202" stroke-width="0" fill="#ff0"/>
    <rect id="rect2387" stroke-linejoin="round" transform="matrix(.69094 -.72292 .71729 .69677 0 0)" fill-opacity=".8995" ry="10.435" height="172.58" width="172.63" stroke="#000" y="90.737" x="-88.77" stroke-width="1.669" fill="#ff0"/>
    <path id="text3161" transform="scale(.87668 1.1407)" d="m35.396 118.28l9.89-0.96c0.595 3.32 1.797 5.76 3.605 7.31 1.832 1.56 4.293 2.34 7.383 2.34 3.274 0 5.735-0.69 7.383-2.06 1.671-1.4 2.507-3.02 2.507-4.88 0-1.19-0.355-2.2-1.065-3.02-0.686-0.85-1.9-1.58-3.639-2.2-1.191-0.41-3.904-1.14-8.139-2.19-5.448-1.36-9.271-3.02-11.469-4.98-3.091-2.77-4.636-6.15-4.636-10.134 0-2.564 0.721-4.956 2.163-7.177 1.466-2.243 3.56-3.949 6.285-5.117 2.747-1.167 6.055-1.751 9.924-1.751 6.318 0 11.068 1.385 14.25 4.155 3.205 2.77 4.888 6.467 5.048 11.092l-10.164 0.446c-0.435-2.587-1.374-4.441-2.816-5.563-1.419-1.144-3.56-1.717-6.421-1.717-2.954 0-5.266 0.607-6.937 1.82-1.076 0.779-1.614 1.82-1.614 3.125 0 1.191 0.504 2.209 1.511 3.056 1.282 1.075 4.395 2.195 9.34 3.365s8.596 2.38 10.954 3.64c2.381 1.24 4.236 2.94 5.563 5.12 1.351 2.15 2.026 4.82 2.026 8 0 2.88-0.801 5.58-2.403 8.1-1.603 2.52-3.869 4.4-6.8 5.63-2.93 1.22-6.581 1.82-10.954 1.82-6.364 0-11.251-1.46-14.662-4.39-3.412-2.96-5.449-7.25-6.113-12.88m49.826 16.38v-49.928h10.165v41.448h25.273v8.48h-35.438m40.658-24.86c0-5.13 0.77-9.43 2.3-12.912 1.15-2.564 2.7-4.865 4.67-6.902 1.99-2.038 4.17-3.549 6.52-4.533 3.14-1.328 6.76-1.992 10.86-1.992 7.41 0 13.34 2.301 17.78 6.902 4.47 4.602 6.7 10.997 6.7 19.197 0 8.13-2.21 14.49-6.63 19.09-4.42 4.58-10.32 6.87-17.72 6.87-7.48 0-13.43-2.28-17.85-6.83-4.42-4.58-6.63-10.88-6.63-18.89m10.47-0.34c0 5.7 1.32 10.02 3.95 12.98 2.63 2.93 5.98 4.39 10.03 4.39s7.37-1.45 9.96-4.36c2.61-2.93 3.91-7.31 3.91-13.15 0-5.77-1.27-10.074-3.81-12.913-2.52-2.839-5.87-4.258-10.06-4.258s-7.57 1.442-10.13 4.327c-2.56 2.861-3.85 7.184-3.85 12.984m53.54 25.2l-12.02-50.34h10.4l7.59 34.58 9.21-34.58h12.08l8.83 35.16 7.72-35.16h10.24l-12.23 50.34h-10.78l-10.03-37.635-9.99 37.635h-11.02"/>
    <path id="path3165" stroke-width="0" fill-opacity=".8995" transform="translate(163.64 39.396)" d="m-34.345-14.155a5.5558 5.5558 0 1 1 -11.112 0 5.5558 5.5558 0 1 1 11.112 0z"/>
    <path id="path3167" stroke-width="0" fill-opacity=".8995" transform="translate(166.17 242.94)" d="m-34.345-14.155a5.5558 5.5558 0 1 1 -11.112 0 5.5558 5.5558 0 1 1 11.112 0z"/>
  </g>
  <metadata>
    <rdf:RDF>
      <cc:Work>
        <dc:format>image/svg+xml</dc:format>
        <dc:type rdf:resource="http://purl.org/dc/dcmitype/StillImage"/>
        <cc:license rdf:resource="http://creativecommons.org/licenses/publicdomain/"/>
        <dc:publisher>
          <cc:Agent rdf:about="http://openclipart.org/">
            <dc:title>Openclipart</dc:title>
          </cc:Agent>
        </dc:publisher>
        <dc:title>Slow Road Sign</dc:title>
        <dc:date>2008-10-22T16:15:02</dc:date>
        <dc:description>caution, caution, clip art, clipart, image, media, public domain, road, road, sign, sign, slow, slow, svg, yellow, yellow, </dc:description>
        <dc:source>http://openclipart.org/detail/19686/slow-road-sign-by-schoolfreeware</dc:source>
        <dc:creator>
          <cc:Agent>
            <dc:title>schoolfreeware</dc:title>
          </cc:Agent>
        </dc:creator>
        <dc:subject>
          <rdf:Bag>
            <rdf:li>caution</rdf:li>
            <rdf:li>clip art</rdf:li>
            <rdf:li>clipart</rdf:li>
            <rdf:li>image</rdf:li>
            <rdf:li>media</rdf:li>
            <rdf:li>public domain</rdf:li>
            <rdf:li>road</rdf:li>
            <rdf:li>sign</rdf:li>
            <rdf:li>slow</rdf:li>
            <rdf:li>svg</rdf:li>
            <rdf:li>yellow</rdf:li>
          </rdf:Bag>
        </dc:subject>
      </cc:Work>
      <cc:License rdf:about="http://creativecommons.org/licenses/publicdomain/">
        <cc:permits rdf:resource="http://creativecommons.org/ns#Reproduction"/>
        <cc:permits rdf:resource="http://creativecommons.org/ns#Distribution"/>
        <cc:permits rdf:resource="http://creativecommons.org/ns#DerivativeWorks"/>
      </cc:License>
    </rdf:RDF>
  </metadata>
</svg>